<?xml version="1.0" encoding="UTF-8" standalone="no"?>
<!-- Created with Inkscape (http://www.inkscape.org/) -->

<svg
   xmlns:dc="http://purl.org/dc/elements/1.1/"
   xmlns:cc="http://creativecommons.org/ns#"
   xmlns:rdf="http://www.w3.org/1999/02/22-rdf-syntax-ns#"
   xmlns:svg="http://www.w3.org/2000/svg"
   xmlns="http://www.w3.org/2000/svg"
   xmlns:sodipodi="http://sodipodi.sourceforge.net/DTD/sodipodi-0.dtd"
   xmlns:inkscape="http://www.inkscape.org/namespaces/inkscape"
   width="468"
   height="60"
   viewBox="0 0 468 60"
   id="svg4410"
   version="1.1"
   inkscape:version="0.92.2 (5c3e80d, 2017-08-06)"
   sodipodi:docname="banner_home.svg">
  <defs
     id="defs4412">
    <inkscape:perspective
       id="perspective3336"
       inkscape:persp3d-origin="372.04724 : 350.78739 : 1"
       inkscape:vp_z="710 : 670 : 1"
       inkscape:vp_y="0 : 999.99998 : 0"
       inkscape:vp_x="20 : 710 : 1"
       sodipodi:type="inkscape:persp3d" />
  </defs>
  <sodipodi:namedview
     id="base"
     pagecolor="#ffffff"
     bordercolor="#666666"
     borderopacity="1.0"
     inkscape:pageopacity="0.0"
     inkscape:pageshadow="2"
     inkscape:zoom="2.2244262"
     inkscape:cx="215.78968"
     inkscape:cy="-44.034146"
     inkscape:document-units="px"
     inkscape:current-layer="layer1"
     showgrid="false"
     units="px"
     inkscape:window-width="1920"
     inkscape:window-height="1017"
     inkscape:window-x="-8"
     inkscape:window-y="-8"
     inkscape:window-maximized="1"
     showguides="false" />
  <metadata
     id="metadata4415">
    <rdf:RDF>
      <cc:Work
         rdf:about="">
        <dc:format>image/svg+xml</dc:format>
        <dc:type
           rdf:resource="http://purl.org/dc/dcmitype/StillImage" />
        <dc:title />
      </cc:Work>
    </rdf:RDF>
  </metadata>
  <g
     inkscape:label="Layer 1"
     inkscape:groupmode="layer"
     id="layer1"
     transform="translate(0,-992.3622)">
    <g
       id="g5139"
       transform="matrix(14.599013,0,0,1.8569626,-11.800404,-901.3379)">
      <path
         style="opacity:1;fill:#84edb7;fill-opacity:0.83596209;stroke:none;stroke-width:0.00009032;stroke-linejoin:round;stroke-miterlimit:4;stroke-dasharray:none;stroke-opacity:1;image-rendering:auto"
         d="m 4.5248834,1019.7821 24.6857116,0 c 2.026058,0 3.657144,1.9029 3.657144,4.2667 l 0,23.4666 c 0,2.3638 -1.631086,4.2667 -3.657144,4.2667 l -24.6857116,0 c -2.026058,0 -3.6571437,-1.9029 -3.6571437,-4.2667 l 0,-23.4666 c 0,-2.3638 1.6310857,-4.2667 3.6571437,-4.2667 z"
         id="rect5913"
         inkscape:connector-curvature="0" />
      <path
         inkscape:connector-curvature="0"
         id="rect5918"
         d="m 2.5035834,1020.5405 c -0.9613221,0.7661 -1.59017238,2.0541 -1.59017238,3.5199 l 0,23.4353 c 0,2.3606 1.63016318,4.261 3.65507378,4.261 l 24.6717482,0 c 1.361376,0 2.543401,-0.8597 3.17249,-2.1401 -0.586827,0.4677 -1.297359,0.7411 -2.064902,0.7411 l -24.6717485,0 c -2.0249116,0 -3.6550738,-1.9004 -3.6550738,-4.2609 l 0,-23.4354 c 0,-0.7735 0.1759652,-1.4969 0.4825847,-2.1209 z"
         style="opacity:0.26100003;fill:#18a55d;fill-opacity:0.75078861;fill-rule:nonzero;stroke:none;stroke-width:0.99904996;stroke-linejoin:round;stroke-miterlimit:4;stroke-dasharray:none;stroke-opacity:1;image-rendering:auto" />
    </g>
    <text
       xml:space="preserve"
       style="font-style:normal;font-variant:normal;font-weight:normal;font-stretch:normal;font-size:8.5396862px;line-height:0%;font-family:'Buxton Sketch';-inkscape-font-specification:'Buxton Sketch, Normal';text-align:center;letter-spacing:0px;word-spacing:0px;writing-mode:lr-tb;text-anchor:middle;fill:#000000;fill-opacity:1;stroke:none;stroke-width:0.71164054px;stroke-linecap:butt;stroke-linejoin:miter;stroke-opacity:1"
       x="228.43318"
       y="1071.3824"
       id="text5014"
       transform="scale(1.0370751,0.96425032)"><tspan
         sodipodi:role="line"
         id="tspan5016"
         x="228.43318"
         y="1071.3824"
         style="font-style:normal;font-variant:normal;font-weight:normal;font-stretch:normal;font-size:38.04476929px;line-height:125%;font-family:'Buxton Sketch';-inkscape-font-specification:'Buxton Sketch, Normal';text-align:center;writing-mode:lr-tb;text-anchor:middle;stroke-width:0.71164054px">ADHD    pting <tspan
   style="font-style:normal;font-variant:normal;font-weight:normal;font-stretch:normal;font-size:25.36318016px;line-height:125%;font-family:'Buxton Sketch';-inkscape-font-specification:'Buxton Sketch, Normal';text-align:center;writing-mode:lr-tb;text-anchor:middle;stroke-width:0.71164054px"
   id="tspan5022">to our lives</tspan></tspan></text>
    <g
       id="g5027"
       transform="matrix(0.73795552,0,0,0.7817887,48.77739,220.46553)">
      <g
         id="g4295"
         transform="matrix(9.3367068,0,0,9.3367068,118.2897,986.05866)">
        <g
           id="g4273">
          <g
             id="g4224">
            <path
               style="fill:#d663bb;fill-opacity:1;stroke:none;stroke-width:0.01677614;stroke-linecap:butt;stroke-linejoin:round"
               d="m 16.916225,6.4728295 c -0.145683,0.099 -0.283964,0.2553676 -0.267444,0.444693 -0.05765,0.3742016 -0.06267,0.7644527 -0.168456,1.1275665 -0.322121,0.5330465 -0.669864,1.0530115 -0.989005,1.5860702 0.03554,0.4167338 0.0651,0.8340648 0.106663,1.2502368 0.105769,0.06558 0.257183,-0.0324 0.379547,-0.01504 0.70553,-0.05019 1.429997,0.05109 2.068766,0.358153 0.257966,0.103769 0.478997,0.278066 0.721176,0.405873 0.09745,-0.142665 0.09009,-0.352776 0.150035,-0.518336 0.05626,-0.284555 0.159016,-0.568309 0.18479,-0.853658 C 18.991386,9.7788094 18.880476,9.299234 18.769568,8.8196585 18.930171,8.5289042 19.123344,8.2481173 19.264163,7.951312 18.485285,7.7109154 17.674414,7.5346885 16.893782,7.2924686 c -0.02178,-0.2671648 0.09182,-0.5348651 0.06252,-0.7996013 -0.0079,-0.013804 -0.02415,-0.022408 -0.04007,-0.020038 z"
               id="path9872"
               inkscape:connector-curvature="0"
               transform="scale(0.26458333)" />
            <path
               style="fill:#da63f2;fill-opacity:0.73366831;stroke:none;stroke-width:0.01677614;stroke-linecap:butt;stroke-linejoin:round"
               d="m 20.001617,7.3125681 c -0.111305,0.096741 -0.11307,0.2890329 -0.193316,0.4139583 -0.06038,0.093098 -0.07232,0.2562822 -0.163481,0.3134453 -0.108156,-0.060449 -0.221887,-0.00917 -0.264314,0.1050598 -0.139301,0.2377962 -0.288942,0.4741878 -0.411114,0.7189568 0.103019,0.3857699 0.151464,0.7963281 0.295881,1.1663247 0.135202,-0.039981 0.209874,-0.2145807 0.320087,-0.3037141 0.219965,-0.2504863 0.451592,-0.4947882 0.659608,-0.7531116 0.0091,-0.443351 0.03466,-0.8888835 0.0336,-1.330881 -0.0965,-0.091265 -0.148193,-0.2832409 -0.276953,-0.3300382 z"
               id="path9874"
               inkscape:connector-curvature="0"
               transform="scale(0.26458333)" />
            <path
               style="fill:#9cb0ff;fill-opacity:1;stroke:none;stroke-width:0.01677614;stroke-linecap:butt;stroke-linejoin:round"
               d="m 21.360242,5.46391 c -0.331817,0.2790473 -0.671463,0.5638028 -0.969981,0.8731885 -0.08797,0.2372975 -0.235349,0.464187 -0.284201,0.711402 0.06071,0.1197846 0.128884,0.2550786 0.239899,0.3336759 0.119979,-0.07116 0.145061,-0.2584102 0.223942,-0.3725972 0.07443,-0.1454865 0.139712,-0.3094285 0.226755,-0.4406915 0.06372,0.037251 0.210624,0.060788 0.11322,0.1579998 C 20.72707,7.15343 20.4283,7.5592506 20.452313,8.0450783 c -0.0044,0.2814187 -0.03671,0.5691371 -0.01967,0.8465314 0.100878,-0.00566 0.282301,0.027598 0.33941,-0.077993 -0.03118,-0.099916 -0.162903,-0.1482137 -0.194027,-0.2426733 0.358978,-0.5055252 0.75763,-0.9934245 1.129577,-1.4927248 0.07865,-0.4143384 0.19584,-0.8274157 0.248099,-1.2438243 -0.16776,-0.153256 -0.369254,-0.2821765 -0.577335,-0.3736282 z"
               id="path9876"
               inkscape:connector-curvature="0"
               transform="scale(0.26458333)" />
            <g
               id="g4320">
              <g
                 id="g4373">
                <path
                   inkscape:connector-curvature="0"
                   d="m 2.08698,-0.27857 0.37935,-0.05063 0.03864,-5.9e-4 0.43679,0.14302 V 0.18677 L 2.50497,0.32979 2.46633,0.3292 2.08698,0.27857 1.94666,0.80224 2.3005,0.94807 2.33426,0.96688 2.64102,1.30913 2.45425,1.63263 2.00447,1.53809 1.9713,1.51826 1.66809,1.28473 1.28473,1.66809 1.51826,1.9713 1.53809,2.00447 1.63263,2.45425 1.30913,2.64102 0.96688,2.33426 0.94807,2.3005 0.80224,1.94666 0.27857,2.08698 0.3292,2.46633 0.32979,2.50497 0.18677,2.94176 H -0.18677 L -0.32979,2.50497 -0.3292,2.46633 -0.27857,2.08698 -0.80224,1.94666 -0.94807,2.3005 -0.96688,2.33426 -1.30913,2.64102 -1.63263,2.45425 -1.53809,2.00447 -1.51826,1.9713 -1.28473,1.66809 -1.66809,1.28473 -1.9713,1.51826 -2.00447,1.53809 -2.45425,1.63263 -2.64102,1.30913 -2.33426,0.96688 -2.3005,0.94807 -1.94666,0.80224 -2.08698,0.27857 -2.46633,0.3292 -2.50497,0.32979 -2.94176,0.18677 v -0.37354 l 0.43679,-0.14302 0.03864,5.9e-4 0.37935,0.05063 0.14032,-0.52367 -0.35384,-0.14583 -0.03376,-0.01881 -0.30676,-0.34225 0.18677,-0.3235 0.44978,0.09454 0.03317,0.01983 0.30321,0.23353 0.38336,-0.38336 -0.23353,-0.30321 -0.01983,-0.03317 -0.09454,-0.44978 0.3235,-0.18677 0.34225,0.30676 0.01881,0.03376 0.14583,0.35384 0.52367,-0.14032 -0.05063,-0.37935 -5.9e-4,-0.03864 0.14302,-0.43679 h 0.37354 l 0.14302,0.43679 -5.9e-4,0.03864 -0.05063,0.37935 0.52367,0.14032 0.14583,-0.35384 0.01881,-0.03376 0.34225,-0.30676 0.3235,0.18677 -0.09454,0.44978 -0.01983,0.03317 -0.23353,0.30321 0.38336,0.38336 0.30321,-0.23353 0.03317,-0.01983 0.44978,-0.09454 0.18677,0.3235 -0.30676,0.34225 -0.03376,0.01881 -0.35384,0.14583 z"
                   style="fill:none;stroke:#000000;stroke-width:0.26458332"
                   id="path7611"
                   transform="translate(4.3273199,3.9235345)" />
              </g>
              <ellipse
                 transform="translate(1.2277694,0.53453905)"
                 ry="0.96168584"
                 rx="0.94959241"
                 cy="3.4112353"
                 cx="3.1123977"
                 id="path7671"
                 style="fill:#ffffff;fill-opacity:1;stroke:#111111;stroke-width:0.14311829;stroke-linecap:butt;stroke-linejoin:round" />
              <path
                 transform="scale(0.26458333)"
                 inkscape:connector-curvature="0"
                 id="path9838"
                 d="m 11.013022,16.857289 c -0.485286,0.01704 -0.972831,0.0211 -1.4567181,0.04618 -0.098828,0.08427 -0.3286542,0.156547 -0.2236716,0.3272 0.077521,0.307095 0.1659379,0.611357 0.2416748,0.918906 -0.5655386,0.242479 -1.1508713,0.456223 -1.705064,0.713963 -0.064424,0.317226 -0.1662523,0.631887 -0.3919215,0.873584 -0.097451,0.147897 -0.2424669,0.277682 -0.3098953,0.436765 0.059407,0.126903 0.1547299,0.319072 0.3294214,0.241169 0.3886486,-0.07692 0.7817795,-0.15016 1.1576928,-0.275633 0.4876991,-0.359696 0.9623804,-0.736709 1.4430925,-1.105656 0.68059,0.684016 1.369699,1.359717 2.04059,2.05329 -0.375637,0.527709 -0.808978,1.016974 -1.150479,1.567451 -0.07813,0.403437 -0.196596,0.814093 -0.237915,1.215023 0.200342,0.104138 0.395773,0.258046 0.606241,0.325977 0.32827,-0.292464 0.679447,-0.572847 0.978649,-0.889246 0.241656,-0.558536 0.453087,-1.135557 0.706007,-1.686199 0.932633,0.236585 1.862724,0.482794 2.791114,0.735542 -0.0676,0.622347 -0.163713,1.241788 -0.237865,1.863085 0.141191,0.403372 0.251365,0.825478 0.410067,1.218361 0.218426,0.06753 0.457952,0.01719 0.683443,0.03397 0.147892,-0.296341 0.217657,-0.649385 0.335944,-0.967213 0.09538,-0.196627 0.104791,-0.402013 0.0516,-0.611985 -0.05926,-0.503585 -0.155949,-1.01817 -0.188526,-1.515627 0.250146,-0.118351 0.536656,-0.144019 0.797752,-0.240331 -0.0016,-0.16894 -0.145581,-0.328046 -0.198332,-0.492806 -0.415324,-0.868733 -0.810918,-1.74927 -1.246857,-2.606828 -0.352024,-0.334965 -0.87624,-0.289154 -1.29429,-0.486515 -0.671279,-0.249384 -1.267379,-0.69536 -1.726248,-1.245422 -0.225268,-0.204054 -0.504978,-0.337174 -0.765006,-0.487945 -0.480168,0.01365 -0.960336,0.02729 -1.440504,0.04094 z"
                 style="fill:#ffee55;fill-opacity:1;stroke:none;stroke-width:0.01677614;stroke-linecap:butt;stroke-linejoin:round" />
              <path
                 transform="scale(0.26458333)"
                 inkscape:connector-curvature="0"
                 id="path9840"
                 d="m 9.0681827,13.551049 c -0.1046309,0.07828 -0.084833,0.265658 -0.1412897,0.382119 -0.040126,0.121634 -0.054311,0.25773 -0.1267854,0.366371 -0.6103383,-0.0668 -1.2178913,-0.15931 -1.8271406,-0.231021 -0.4161114,0.133987 -0.8322197,0.267984 -1.2483251,0.40199 -0.045626,0.217774 0.0064,0.465185 -0.00296,0.693986 0.3066714,0.149302 0.6675323,0.222935 0.9946859,0.343663 0.3036093,0.158612 0.635745,0.0089 0.9550727,-0.0068 0.3773925,-0.04169 0.7644399,-0.114223 1.1361267,-0.14529 0.1639632,0.397133 0.2154428,0.841624 0.3674629,1.240249 0.4454233,0.210465 0.9448109,0.07476 1.4154839,0.08921 0.560218,-0.0229 1.12244,-0.02479 1.681252,-0.06713 0.04654,-0.108155 -0.09659,-0.227313 -0.118069,-0.336389 -0.27507,-0.561818 -0.552497,-1.12436 -0.840602,-1.67849 -0.545088,-0.317078 -1.067377,-0.676343 -1.6259602,-0.968536 -0.1976859,-0.06606 -0.4124545,-0.0725 -0.6189527,-0.08397 z"
                 style="fill:#ffcc55;fill-opacity:1;stroke:none;stroke-width:0.01677614;stroke-linecap:butt;stroke-linejoin:round" />
              <path
                 transform="scale(0.26458333)"
                 inkscape:connector-curvature="0"
                 id="path9842"
                 d="m 12.673017,11.189176 c -0.315323,0.06124 -0.649422,0.07404 -0.953612,0.164083 -0.182522,0.153761 -0.423832,0.268343 -0.571605,0.44482 0.197104,0.370966 0.463138,0.713509 0.618274,1.10171 -0.07551,0.549531 -0.194656,1.094076 -0.275535,1.641375 0.362586,0.692047 0.671676,1.414526 1.073965,2.084488 0.06756,0.08612 0.170339,0.154957 0.275659,0.177874 0.05677,-0.09666 -0.07896,-0.215166 -0.102594,-0.31518 -0.402985,-0.8412 -0.444851,-1.822545 -0.223828,-2.719928 0.272231,-0.960162 0.912605,-1.818413 1.762794,-2.340391 -0.04481,-0.140481 -0.319156,-0.171334 -0.450755,-0.269325 -0.16588,-0.130927 -0.357409,-0.107454 -0.549782,-0.06184 -0.200993,0.03077 -0.401987,0.06154 -0.602981,0.09231 z"
                 style="fill:#ff9655;fill-opacity:1;stroke:none;stroke-width:0.01677614;stroke-linecap:butt;stroke-linejoin:round" />
              <path
                 transform="scale(0.26458333)"
                 inkscape:connector-curvature="0"
                 id="path9844"
                 d="m 11.073013,7.0147753 c -0.135231,0.011359 0.0061,0.1539646 0.04051,0.2025978 0.335648,0.4527067 0.684923,0.8950109 1.028464,1.3417321 -0.68513,0.6806117 -1.359543,1.3722988 -2.05699,2.0403428 C 9.5892251,10.251783 9.1303165,9.8507451 8.6306801,9.5106857 8.2083254,9.369256 7.7623322,9.2943175 7.3244612,9.2231276 7.1985485,9.4046301 7.0772346,9.6087336 7.0015132,9.8158154 c 0.2581569,0.3517466 0.5705978,0.6641516 0.860208,0.9899296 0.5611748,0.240313 1.1464932,0.447396 1.6921165,0.711497 -0.051646,0.39162 -0.2110658,0.768114 -0.2786181,1.154918 0.1814981,0.261359 0.3282391,0.556885 0.530307,0.798024 0.4911984,0.295603 0.9756904,0.603117 1.4737824,0.886817 0.109409,-0.04746 0.06455,-0.24163 0.112397,-0.340705 0.05901,-0.376167 0.157987,-0.754113 0.17251,-1.133215 -0.17802,-0.324613 -0.357658,-0.659137 -0.585289,-0.949422 -0.333298,0.114116 -0.478729,0.486755 -0.667684,0.756109 -0.08032,0.11184 -0.144499,0.26155 -0.236977,0.352136 -0.2293157,-0.06099 -0.04734,-0.234296 0.02764,-0.363365 0.173658,-0.238221 0.279804,-0.539131 0.498036,-0.735979 0.290848,-0.222867 0.607953,-0.418506 0.877466,-0.665957 -0.04355,-0.126315 -0.240868,-0.131311 -0.341619,-0.205189 -0.252064,-0.115871 -0.502268,-0.235685 -0.753062,-0.354267 0.02439,-0.08213 0.07452,-0.21183 0.173755,-0.115589 0.394984,0.173832 0.782269,0.372869 1.177287,0.545631 0.547654,-0.09226 1.107711,-0.142157 1.64717,-0.267273 0.067,-0.125236 -0.09541,-0.258867 -0.127563,-0.375046 -0.09767,-0.191678 -0.230759,-0.390844 -0.30735,-0.5794323 0.06609,-0.031314 0.16057,-0.1269506 0.187616,-0.00499 0.191335,0.3184903 0.360018,0.6518293 0.552489,0.9686583 0.285792,0.127639 0.564522,0.286971 0.854597,0.395393 0.269926,-0.160442 0.594206,-0.220919 0.86594,-0.354887 -0.02242,-0.433803 -0.06034,-0.873133 -0.102592,-1.3063405 C 14.897025,9.0859687 14.544146,8.5037554 14.095763,7.9997111 13.961082,7.8920851 13.789158,7.8016112 13.621233,7.8952216 13.427325,7.9319103 13.204522,8.0295589 13.026114,8.0262226 12.889063,7.7570942 12.83795,7.4285473 12.625789,7.205597 12.254914,7.0741011 11.843976,7.1070648 11.457118,7.0503708 11.32957,7.0427385 11.201222,7.0180454 11.073013,7.0147753 Z"
                 style="fill:#ff5555;fill-opacity:1;stroke:none;stroke-width:0.01677614;stroke-linecap:butt;stroke-linejoin:round" />
              <path
                 transform="scale(0.26458333)"
                 inkscape:connector-curvature="0"
                 id="path9850"
                 d="m 11.306808,5.4713703 c -0.209506,0.047439 -0.373323,0.2123343 -0.566732,0.3007522 -0.04608,0.1707808 0.06522,0.3696705 0.08059,0.5509892 0.05708,0.1601118 0.03781,0.3762945 0.156414,0.5011502 0.417021,0.071059 0.84353,0.1058519 1.264663,0.1283654 0.122878,-0.083156 -0.06611,-0.21334 -0.110188,-0.2903198 -0.0813,-0.1204763 -0.222264,-0.2227914 -0.268557,-0.3587205 0.0515,-0.083368 0.113772,-0.103489 0.162213,0.00123 0.128934,0.1373179 0.226548,0.3126076 0.379363,0.4234453 0.135518,-0.029291 0.01356,-0.2030769 -0.01054,-0.2857701 C 12.167143,6.0999676 11.819063,5.8580542 11.526299,5.5748887 11.463238,5.5248992 11.39176,5.4683758 11.306808,5.4713703 Z"
                 style="fill:#ff3232;fill-opacity:0.8894472;stroke:none;stroke-width:0.01677614;stroke-linecap:butt;stroke-linejoin:round" />
              <path
                 transform="scale(0.26458333)"
                 inkscape:connector-curvature="0"
                 id="path9856"
                 d="m 9.2080159,12.97692 c -0.063716,0.103567 -0.092398,0.241309 -0.1136299,0.359694 0.08703,0.08023 0.2486299,0.04584 0.3537137,0.01794 0.013142,-0.129533 -0.1308845,-0.244784 -0.1902051,-0.357906 -0.011361,-0.01479 -0.028653,-0.03041 -0.049879,-0.01973 z"
                 style="fill:#ff8d55;fill-opacity:1;stroke:none;stroke-width:0.01677614;stroke-linecap:butt;stroke-linejoin:round" />
              <path
                 transform="scale(0.26458333)"
                 inkscape:connector-curvature="0"
                 id="path9860"
                 d="m 7.4842704,19.300978 c -0.1923925,0.155978 -0.3670174,0.356389 -0.492252,0.570245 0.00893,0.112153 0.1338613,0.06845 0.1608059,-0.01338 0.1223925,-0.175806 0.3009176,-0.337751 0.3712752,-0.538432 -0.00628,-0.01564 -0.024605,-0.02277 -0.039829,-0.01843 z"
                 style="fill:#ffe255;fill-opacity:1;stroke:none;stroke-width:0.01677614;stroke-linecap:butt;stroke-linejoin:round" />
              <path
                 transform="scale(0.26458333)"
                 inkscape:connector-curvature="0"
                 id="path9862"
                 d="m 19.502829,17.304656 c -0.413724,0.451001 -0.879239,0.870954 -1.447139,1.114367 -0.471033,0.245487 -1.000045,0.346232 -1.525116,0.403267 -0.09075,-0.0039 -0.165023,0.06553 -0.09235,0.149271 0.473814,1.035801 0.953724,2.071357 1.481184,3.080455 0.279325,-0.02129 0.562511,-0.140059 0.841883,-0.199802 0.299082,-0.07241 0.605207,-0.176263 0.90227,-0.224938 0.112318,0.133467 0.108512,0.35949 0.251367,0.459266 0.244035,-0.236895 0.446379,-0.528098 0.647869,-0.805396 0.09471,-0.08192 -0.02765,-0.199334 0.08071,-0.268076 0.1233,-0.14753 0.341056,-0.257698 0.268116,-0.48249 -0.0236,-0.655069 -0.03,-1.313577 -0.06441,-1.966501 -0.353893,-0.393769 -0.658621,-0.84023 -1.064223,-1.183526 -0.08199,-0.04905 -0.188511,-0.08108 -0.28016,-0.0759 z"
                 style="fill:#9ce255;fill-opacity:1;stroke:none;stroke-width:0.01677614;stroke-linecap:butt;stroke-linejoin:round" />
              <path
                 transform="scale(0.26458333)"
                 inkscape:connector-curvature="0"
                 id="path9864"
                 d="m 20.734138,21.380225 c -0.244539,0.331747 -0.529396,0.646659 -0.749476,0.988635 0.155106,0.310989 0.236274,0.662027 0.424555,0.953923 0.289292,0.317519 0.627475,0.585881 0.940297,0.879321 0.193207,-0.07206 0.391736,-0.194162 0.564265,-0.321221 0.113713,-0.119958 -0.03197,-0.303667 -0.02302,-0.443942 -0.07073,-0.293161 -0.103643,-0.603612 -0.202254,-0.885025 -0.31017,-0.393477 -0.599723,-0.812947 -0.931683,-1.183221 z"
                 style="fill:#9ce22a;fill-opacity:1;stroke:none;stroke-width:0.01677614;stroke-linecap:butt;stroke-linejoin:round" />
              <path
                 transform="scale(0.26458333)"
                 inkscape:connector-curvature="0"
                 id="path9866"
                 d="m 25.348569,9.2310194 c -0.424128,0.070754 -0.850617,0.1474554 -1.264293,0.263821 -0.495046,0.3635529 -0.969128,0.7672836 -1.477004,1.1065186 -0.163887,-0.09916 -0.267018,-0.305507 -0.442311,-0.37073 -0.30262,0.365513 -0.595433,0.749075 -0.853118,1.146656 0.09667,0.123002 0.298844,0.129584 0.435833,0.198123 0.260642,0.104667 0.559175,0.142899 0.799175,0.286669 -0.0081,0.0618 -0.02498,0.181111 -0.116466,0.117638 -0.44836,-0.120107 -0.885197,-0.297545 -1.337725,-0.392742 -0.580364,0.172015 -1.159151,0.352963 -1.729726,0.55477 -0.04642,0.105936 0.128352,0.189407 0.166152,0.27854 0.546182,0.733137 0.848532,1.655661 0.793633,2.570514 -4.5e-5,0.731801 -0.269812,1.439947 -0.644913,2.058177 -0.02884,0.162611 0.207743,0.104363 0.271651,0.212462 0.347246,0.339631 0.637088,0.741957 0.972851,1.085557 0.252297,-0.204084 0.433478,-0.496617 0.647981,-0.74216 0.129582,-0.162043 0.259163,-0.324085 0.388745,-0.486128 0.0579,0.04829 0.185295,0.109792 0.07567,0.182978 -0.3208,0.432715 -0.674853,0.843324 -0.994638,1.274296 0.02579,0.648584 0.02627,1.30437 0.05117,1.948354 0.188989,-0.103177 0.335251,-0.323915 0.507993,-0.471494 0.338779,-0.338548 0.677534,-0.67712 1.016299,-1.015682 0.206674,0.139017 0.392011,0.338014 0.612171,0.444038 0.299441,-0.196636 0.410099,-0.638665 0.794268,-0.71251 0.05985,-0.04029 0.263471,-0.04931 0.207438,-0.148808 -0.346106,-0.188602 -0.746403,-0.306529 -1.086728,-0.478811 0.241159,-0.932147 0.489087,-1.863201 0.744914,-2.791422 0.617431,0.07112 1.232469,0.165891 1.849151,0.240885 0.407151,-0.130452 0.814299,-0.260914 1.221443,-0.391385 0.04999,-0.222648 0.006,-0.476025 0.0209,-0.71014 -0.293213,-0.146035 -0.643116,-0.213603 -0.957841,-0.329872 -0.193154,-0.09515 -0.395637,-0.09813 -0.601862,-0.04874 -0.508917,0.06376 -1.01844,0.142556 -1.527846,0.183904 -0.254643,-0.92214 -0.530419,-1.841168 -0.726664,-2.777796 0.285683,-0.157031 0.633324,-0.268901 0.943046,-0.406166 0.255085,-0.117378 0.537453,-0.194514 0.776363,-0.335808 0.269329,-0.319635 0.583082,-0.613249 0.822187,-0.9529787 -0.07921,-0.2075375 -0.181483,-0.4274536 -0.332689,-0.5899133 -0.0082,-0.00211 -0.01687,-0.00101 -0.02522,-6.166e-4 z"
                 style="fill:#5ccaf5;fill-opacity:1;stroke:none;stroke-width:0.01677614;stroke-linecap:butt;stroke-linejoin:round" />
              <path
                 transform="scale(0.26458333)"
                 inkscape:connector-curvature="0"
                 id="path9868"
                 d="m 24.2439,18.882588 c -0.179834,0.07129 -0.397036,0.09781 -0.489468,0.292229 -0.101985,0.159419 -0.271898,0.297788 -0.332884,0.473092 0.256488,0.213902 0.517977,0.478334 0.872154,0.501357 0.251157,0.02397 0.477303,0.127961 0.707689,0.218093 0.122999,0.01368 0.271767,0.112847 0.383555,0.05666 0.115386,-0.181317 0.264933,-0.363419 0.313823,-0.57413 -0.114292,-0.252733 -0.357825,-0.427433 -0.527934,-0.642932 -0.179128,-0.166391 -0.34688,-0.429756 -0.60781,-0.438698 -0.106375,0.03811 -0.21275,0.07622 -0.319125,0.114329 z"
                 style="fill:#9ce2f1;fill-opacity:1;stroke:none;stroke-width:0.01677614;stroke-linecap:butt;stroke-linejoin:round" />
              <path
                 transform="scale(0.26458333)"
                 inkscape:connector-curvature="0"
                 id="path9870"
                 d="m 20.683272,9.058201 c -0.197964,0.00961 -0.372089,0.068769 -0.474563,0.2497539 -0.30451,0.3609482 -0.654342,0.6969571 -0.930968,1.0732521 -0.102293,0.470533 -0.240622,0.942043 -0.316118,1.412927 0.09453,0.08243 0.188136,0.271761 0.338133,0.163201 0.585256,-0.188492 1.174866,-0.370983 1.754555,-0.571973 0.323359,-0.435858 0.646718,-0.871717 0.970077,-1.307575 C 21.903545,9.8710083 21.672743,9.7145752 21.51031,9.5268393 21.328796,9.3572418 21.165629,9.1574131 20.97268,9.0066576 c -0.09647,0.017181 -0.192938,0.034362 -0.289408,0.051543 z"
                 style="fill:#9c63bb;fill-opacity:1;stroke:none;stroke-width:0.01677614;stroke-linecap:butt;stroke-linejoin:round" />
              <path
                 transform="scale(0.26458333)"
                 inkscape:connector-curvature="0"
                 id="path9878"
                 d="m 16.347521,4.204672 c -0.179704,0.0058 -0.426504,-0.049354 -0.420992,0.2100326 -0.103648,0.3611204 -0.254852,0.7171344 -0.330275,1.0812865 0.07751,0.5990952 0.172948,1.1975224 0.229358,1.7978339 -0.486476,0.1612168 -1.003338,0.2424839 -1.4799,0.4345433 -0.144403,0.1098342 0.06126,0.2720861 0.106786,0.3812732 0.290377,0.4356169 0.601176,0.8572167 0.909347,1.2802623 0.119287,-0.0037 0.154229,-0.210864 0.238895,-0.2931845 0.243577,-0.4002975 0.526171,-0.7864861 0.741944,-1.1978086 0.062,-0.4284189 0.09099,-0.8645317 0.191219,-1.2848917 0.162626,-0.2203742 0.38424,-0.4140446 0.516364,-0.6493149 0.02251,-0.2590047 0.126477,-0.5264109 -0.01178,-0.770488 -0.123101,-0.32781 -0.20262,-0.6881697 -0.352341,-0.996099 -0.111231,-0.00276 -0.226172,0.00517 -0.338629,0.00655 z"
                 style="fill:#fa1d67;fill-opacity:0.90954775;stroke:none;stroke-width:0.01677614;stroke-linecap:butt;stroke-linejoin:round" />
              <path
                 transform="scale(0.26458333)"
                 inkscape:connector-curvature="0"
                 id="path9880"
                 d="m 21.36499,5.4377067 c -0.3401,0.2921643 -0.702387,0.5706629 -0.989499,0.9164989 -0.112435,0.2182429 -0.236116,0.449978 -0.271651,0.6934318 0.05459,0.1198213 0.120127,0.2962862 0.257594,0.3337991 0.197807,-0.2275332 0.277695,-0.5439769 0.458589,-0.785359 0.09364,0.015753 0.109274,0.099494 0.05198,0.1702906 -0.200071,0.4179041 -0.452307,0.8386841 -0.435283,1.3195364 0.0012,0.2657238 -0.05038,0.5530721 -0.0084,0.8039119 0.0958,-0.00546 0.301506,0.055127 0.351677,-0.067199 C 20.77949,8.6916576 20.527018,8.6216335 20.65337,8.5001016 20.996659,8.0216755 21.368032,7.5635213 21.721909,7.0938168 21.792625,6.6668986 21.941413,6.2452558 21.953238,5.8118898 21.801357,5.6508908 21.580046,5.5629557 21.399455,5.4356105 l -0.03151,0.00192 z"
                 style="fill:#9c63f2;fill-opacity:1;stroke:none;stroke-width:0.01677614;stroke-linecap:butt;stroke-linejoin:round" />
              <path
                 transform="scale(0.26458333)"
                 inkscape:connector-curvature="0"
                 id="path9882"
                 d="m 16.904757,6.4699934 c -0.202626,0.1078132 -0.290225,0.3456742 -0.292861,0.5662378 -0.05671,0.4383816 -0.04624,0.9144461 -0.325207,1.2860147 -0.26582,0.4370768 -0.554252,0.8628104 -0.813742,1.302008 0.03801,0.4176481 0.05166,0.8383721 0.113753,1.2533811 0.235818,0.05967 0.512208,0.0092 0.763533,0.02689 0.440374,-0.0173 0.886797,0.01878 1.298687,0.184553 0.400149,0.11589 0.738966,0.367977 1.116024,0.531496 0.106082,-0.04598 0.07532,-0.230033 0.126085,-0.324982 0.07501,-0.347482 0.186434,-0.696039 0.227992,-1.045105 -0.103225,-0.47104 -0.229023,-0.9414407 -0.313261,-1.41412 0.120937,-0.304459 0.357194,-0.5632837 0.437749,-0.8810474 -0.09173,-0.102895 -0.280372,-0.0844 -0.40379,-0.1446715 -0.639333,-0.1810941 -1.286391,-0.3507067 -1.924604,-0.5265029 -0.02001,-0.2636282 0.09671,-0.5423992 0.02867,-0.7997863 -0.0098,-0.010679 -0.02464,-0.016183 -0.03903,-0.014366 z"
                 style="fill:#d22372;fill-opacity:0.81407034;stroke:none;stroke-width:0.01677614;stroke-linecap:butt;stroke-linejoin:round" />
              <path
                 transform="scale(0.26458333)"
                 inkscape:connector-curvature="0"
                 id="path9884"
                 d="m 19.995636,7.3138629 c -0.143078,0.2145175 -0.2082,0.484359 -0.319433,0.7193267 -0.224223,-0.064888 -0.323136,0.1084414 -0.404965,0.2878278 -0.08978,0.1937855 -0.262365,0.3712531 -0.300232,0.5754554 0.101958,0.375 0.147517,0.7758139 0.294699,1.1337162 0.135909,-0.03744 0.212262,-0.2125354 0.322712,-0.3010564 0.219477,-0.247821 0.449932,-0.4900583 0.657229,-0.7459655 0.01049,-0.4432695 0.03599,-0.8883856 0.03718,-1.330511 -0.09484,-0.097842 -0.143855,-0.3020594 -0.287188,-0.3387932 z"
                 style="fill:#da63f2;fill-opacity:0.73366831;stroke:none;stroke-width:0.01677614;stroke-linecap:butt;stroke-linejoin:round" />
            </g>
          </g>
        </g>
      </g>
      <g
         id="g5024">
        <path
           sodipodi:type="spiral"
           style="fill:none;fill-rule:evenodd;stroke:#000000;stroke-width:1px;stroke-linecap:butt;stroke-linejoin:miter;stroke-opacity:1"
           id="path5020"
           sodipodi:cx="15.734395"
           sodipodi:cy="1024.4899"
           sodipodi:expansion="1"
           sodipodi:revolution="3.1043572"
           sodipodi:radius="15.259439"
           sodipodi:argument="-17.934456"
           sodipodi:t0="0.46701837"
           d="m 9.8512148,1020.4681 c 2.0198432,-3.7841 6.9385862,-4.9052 10.5984122,-2.8759 4.333931,2.4031 5.600118,8.0914 3.196922,12.3064 -2.784862,4.8844 -9.244832,6.2959 -14.0143886,3.5179 -5.4352874,-3.1657 -6.9922856,-10.3986 -3.8388938,-15.7224 3.5459705,-5.9865 11.5527104,-7.6891 17.4303654,-4.1598 6.538003,3.9257 8.386278,12.707 4.480865,19.1383 -2.535056,4.1747 -7.105603,6.8273 -11.970096,7.0767"
           transform="rotate(-38.21395,84.317994,818.69123)" />
      </g>
    </g>
    <g
       id="g5143"
       transform="matrix(3.3782031,0,0,3.4136269,351.22719,-2490.937)">
      <path
         id="path5960"
         d="m 29.721699,1023.0047 a 2.477734,2.5486663 0 0 1 -2.477734,2.5487 2.477734,2.5486663 0 0 1 -2.477734,-2.5487 2.477734,2.5486663 0 0 1 2.477734,-2.5487 2.477734,2.5486663 0 0 1 2.477734,2.5487 z"
         style="opacity:0.30100002;fill:#ffffff;fill-opacity:1;stroke:none;stroke-width:0.00009032;stroke-linejoin:round;stroke-miterlimit:4;stroke-dasharray:none;stroke-opacity:1;image-rendering:auto"
         inkscape:connector-curvature="0" />
      <path
         id="circle5962"
         d="m 31.739524,1026.8988 a 1.4344776,1.4084734 0 0 1 -1.434477,1.4084 1.4344776,1.4084734 0 0 1 -1.434478,-1.4084 1.4344776,1.4084734 0 0 1 1.434478,-1.4085 1.4344776,1.4084734 0 0 1 1.434477,1.4085 z"
         style="opacity:0.30100002;fill:#ffffff;fill-opacity:1;stroke:none;stroke-width:0.00009032;stroke-linejoin:round;stroke-miterlimit:4;stroke-dasharray:none;stroke-opacity:1;image-rendering:auto"
         inkscape:connector-curvature="0" />
      <path
         id="ellipse5964"
         d="m 23.644679,1022.2364 a 1.4344776,1.4084734 0 0 1 -1.434477,1.4084 1.4344776,1.4084734 0 0 1 -1.434477,-1.4084 1.4344776,1.4084734 0 0 1 1.434477,-1.4085 1.4344776,1.4084734 0 0 1 1.434477,1.4085 z"
         style="opacity:0.30100002;fill:#ffffff;fill-opacity:1;stroke:none;stroke-width:0.00009032;stroke-linejoin:round;stroke-miterlimit:4;stroke-dasharray:none;stroke-opacity:1;image-rendering:auto"
         inkscape:connector-curvature="0" />
    </g>
  </g>
</svg>
