<?xml version="1.0" encoding="UTF-8" standalone="no"?>
<!-- Created with Inkscape (http://www.inkscape.org/) -->

<svg
   xmlns:dc="http://purl.org/dc/elements/1.1/"
   xmlns:cc="http://creativecommons.org/ns#"
   xmlns:rdf="http://www.w3.org/1999/02/22-rdf-syntax-ns#"
   xmlns:svg="http://www.w3.org/2000/svg"
   xmlns="http://www.w3.org/2000/svg"
   xmlns:sodipodi="http://sodipodi.sourceforge.net/DTD/sodipodi-0.dtd"
   xmlns:inkscape="http://www.inkscape.org/namespaces/inkscape"
   width="32"
   height="32"
   viewBox="0 0 32 32"
   id="svg2"
   version="1.1"
   inkscape:version="0.91 r13725"
   sodipodi:docname="bujobutton.svg">
  <defs
     id="defs4">
    <inkscape:perspective
       sodipodi:type="inkscape:persp3d"
       inkscape:vp_x="20 : 710 : 1"
       inkscape:vp_y="0 : 999.99998 : 0"
       inkscape:vp_z="710 : 670 : 1"
       inkscape:persp3d-origin="372.04724 : 350.78739 : 1"
       id="perspective3336" />
  </defs>
  <sodipodi:namedview
     id="base"
     pagecolor="#ffffff"
     bordercolor="#666666"
     borderopacity="1.0"
     inkscape:pageopacity="0.0"
     inkscape:pageshadow="2"
     inkscape:zoom="25.98"
     inkscape:cx="16.039247"
     inkscape:cy="16.309401"
     inkscape:document-units="px"
     inkscape:current-layer="layer1"
     showgrid="false"
     inkscape:snap-others="false"
     inkscape:window-width="1920"
     inkscape:window-height="1017"
     inkscape:window-x="-8"
     inkscape:window-y="-3"
     inkscape:window-maximized="1"
     units="px">
    <inkscape:grid
       type="xygrid"
       id="grid3352" />
  </sodipodi:namedview>
  <metadata
     id="metadata7">
    <rdf:RDF>
      <cc:Work
         rdf:about="">
        <dc:format>image/svg+xml</dc:format>
        <dc:type
           rdf:resource="http://purl.org/dc/dcmitype/StillImage" />
        <dc:title />
      </cc:Work>
    </rdf:RDF>
  </metadata>
  <g
     inkscape:label="Layer 1"
     inkscape:groupmode="layer"
     id="layer1"
     transform="translate(0,-1020.3622)">
    <g
       id="g4835">
      <path
         style="opacity:1;fill:#ffeeaa;fill-opacity:0.83596209;stroke:none;stroke-width:0.00009032;stroke-linejoin:round;stroke-miterlimit:4;stroke-dasharray:none;stroke-opacity:1;image-rendering:auto"
         d="m 3.657144,1020.3622 24.685712,0 c 2.026058,0 3.657144,1.9029 3.657144,4.2667 l 0,23.4666 c 0,2.3638 -1.631086,4.2667 -3.657144,4.2667 l -24.685712,0 c -2.026058,0 -3.6571436682571,-1.9029 -3.6571436682571,-4.2667 l 0,-23.4666 c 0,-2.3638 1.6310856682571,-4.2667 3.6571436682571,-4.2667 z"
         id="rect5913"
         inkscape:connector-curvature="0" />
      <path
         inkscape:connector-curvature="0"
         id="rect5918"
         d="m 1.635844,1021.1206 c -0.96132208,0.7661 -1.59017235,2.0541 -1.59017235,3.5199 l 0,23.4353 c 0,2.3606 1.63016315,4.261 3.65507375,4.261 l 24.6717486,0 c 1.361376,0 2.543401,-0.8597 3.17249,-2.1401 -0.586827,0.4677 -1.297359,0.7411 -2.064902,0.7411 l -24.6717489,0 c -2.0249116,0 -3.6550738,-1.9004 -3.6550738,-4.2609 l 0,-23.4354 c 0,-0.7735 0.1759652,-1.4969 0.4825847,-2.1209 z"
         style="opacity:0.26100003;fill:#18a55d;fill-opacity:0.75078861;fill-rule:nonzero;stroke:none;stroke-width:0.99904996;stroke-linejoin:round;stroke-miterlimit:4;stroke-dasharray:none;stroke-opacity:1;image-rendering:auto" />
      <path
         id="path5960"
         d="m 28.85396,1023.5848 a 2.477734,2.5486663 0 0 1 -2.477734,2.5487 2.477734,2.5486663 0 0 1 -2.477734,-2.5487 2.477734,2.5486663 0 0 1 2.477734,-2.5487 2.477734,2.5486663 0 0 1 2.477734,2.5487 z"
         style="opacity:0.30100002;fill:#ffffff;fill-opacity:1;stroke:none;stroke-width:0.00009032;stroke-linejoin:round;stroke-miterlimit:4;stroke-dasharray:none;stroke-opacity:1;image-rendering:auto"
         inkscape:connector-curvature="0" />
      <path
         id="circle5962"
         d="m 30.871785,1027.4789 a 1.4344776,1.4084734 0 0 1 -1.434477,1.4084 1.4344776,1.4084734 0 0 1 -1.434478,-1.4084 1.4344776,1.4084734 0 0 1 1.434478,-1.4085 1.4344776,1.4084734 0 0 1 1.434477,1.4085 z"
         style="opacity:0.30100002;fill:#ffffff;fill-opacity:1;stroke:none;stroke-width:0.00009032;stroke-linejoin:round;stroke-miterlimit:4;stroke-dasharray:none;stroke-opacity:1;image-rendering:auto"
         inkscape:connector-curvature="0" />
      <path
         id="ellipse5964"
         d="m 22.77694,1022.8165 a 1.4344776,1.4084734 0 0 1 -1.434477,1.4084 1.4344776,1.4084734 0 0 1 -1.434477,-1.4084 1.4344776,1.4084734 0 0 1 1.434477,-1.4085 1.4344776,1.4084734 0 0 1 1.434477,1.4085 z"
         style="opacity:0.30100002;fill:#ffffff;fill-opacity:1;stroke:none;stroke-width:0.00009032;stroke-linejoin:round;stroke-miterlimit:4;stroke-dasharray:none;stroke-opacity:1;image-rendering:auto"
         inkscape:connector-curvature="0" />
      <text
         sodipodi:linespacing="125%"
         id="text4809"
         y="1034.5409"
         x="15.973826"
         style="font-style:normal;font-variant:normal;font-weight:normal;font-stretch:normal;font-size:7.5px;line-height:125%;font-family:'Buxton Sketch';-inkscape-font-specification:'Buxton Sketch, Normal';text-align:center;letter-spacing:0px;word-spacing:0px;writing-mode:lr-tb;text-anchor:middle;fill:#000000;fill-opacity:1;stroke:none;stroke-width:1px;stroke-linecap:butt;stroke-linejoin:miter;stroke-opacity:1"
         xml:space="preserve"><tspan
           y="1034.5409"
           x="15.973826"
           id="tspan4813"
           sodipodi:role="line">Bullet</tspan><tspan
           y="1043.9159"
           x="15.973826"
           id="tspan4815"
           sodipodi:role="line">Journal</tspan></text>
    </g>
  </g>
</svg>
