<?xml version="1.0" encoding="UTF-8" standalone="no"?>
<!-- Created with Inkscape (http://www.inkscape.org/) -->

<svg
   xmlns:dc="http://purl.org/dc/elements/1.1/"
   xmlns:cc="http://creativecommons.org/ns#"
   xmlns:rdf="http://www.w3.org/1999/02/22-rdf-syntax-ns#"
   xmlns:svg="http://www.w3.org/2000/svg"
   xmlns="http://www.w3.org/2000/svg"
   xmlns:sodipodi="http://sodipodi.sourceforge.net/DTD/sodipodi-0.dtd"
   xmlns:inkscape="http://www.inkscape.org/namespaces/inkscape"
   width="32"
   height="32"
   viewBox="0 0 32 32"
   id="svg2"
   version="1.1"
   inkscape:version="0.92.2 (5c3e80d, 2017-08-06)"
   sodipodi:docname="health.svg">
  <defs
     id="defs4">
    <inkscape:perspective
       sodipodi:type="inkscape:persp3d"
       inkscape:vp_x="20 : 710 : 1"
       inkscape:vp_y="0 : 999.99998 : 0"
       inkscape:vp_z="710 : 670 : 1"
       inkscape:persp3d-origin="372.04724 : 350.78739 : 1"
       id="perspective3336" />
  </defs>
  <sodipodi:namedview
     id="base"
     pagecolor="#ffffff"
     bordercolor="#666666"
     borderopacity="1.0"
     inkscape:pageopacity="0.0"
     inkscape:pageshadow="2"
     inkscape:zoom="21.433644"
     inkscape:cx="11.279279"
     inkscape:cy="15.606529"
     inkscape:document-units="px"
     inkscape:current-layer="layer1"
     showgrid="false"
     inkscape:snap-others="false"
     inkscape:window-width="1920"
     inkscape:window-height="1017"
     inkscape:window-x="-8"
     inkscape:window-y="-8"
     inkscape:window-maximized="1"
     units="px">
    <inkscape:grid
       type="xygrid"
       id="grid3352" />
  </sodipodi:namedview>
  <metadata
     id="metadata7">
    <rdf:RDF>
      <cc:Work
         rdf:about="">
        <dc:format>image/svg+xml</dc:format>
        <dc:type
           rdf:resource="http://purl.org/dc/dcmitype/StillImage" />
        <dc:title />
      </cc:Work>
    </rdf:RDF>
  </metadata>
  <g
     inkscape:label="Layer 1"
     inkscape:groupmode="layer"
     id="layer1"
     transform="translate(0,-1020.3622)">
    <path
       style="opacity:0;fill:#ff0000;stroke:none;stroke-width:1px;stroke-linecap:butt;stroke-linejoin:miter;stroke-opacity:1"
       d="m 276.14363,430.46939 c -91.51422,-2.90428 -164.69376,-10.37343 -192.4855,-19.64624 -15.427511,-5.14744 -17.367773,-9.096 -6.97301,-14.19053 20.592226,-10.09235 83.06977,-17.49171 185.52994,-21.97271 28.64968,-1.25297 154.74075,-1.25445 183.92857,-0.002 100.88031,4.32823 164.78608,11.8487 185.54974,21.83562 8.51818,4.09708 8.9073,7.03756 1.4539,10.98674 -21.0513,11.15403 -96.91013,19.70497 -204.50364,23.05201 -25.61744,0.79691 -126.72314,0.75533 -152.5,-0.0627 z"
       id="path3375"
       inkscape:connector-curvature="0" />
    <ellipse
       style="opacity:0.30100002;fill:#ffffff;fill-opacity:0;stroke:none;stroke-width:0.00009032;stroke-linejoin:round;stroke-miterlimit:4;stroke-dasharray:none;stroke-opacity:1"
       id="path5956"
       cx="409.05313"
       cy="385.75711"
       rx="30.669746"
       ry="23.64896" />
    <path
       inkscape:connector-curvature="0"
       id="rect5913"
       d="m 3.657144,1020.3622 24.685712,0 c 2.026058,0 3.657144,1.9029 3.657144,4.2667 l 0,23.4666 c 0,2.3638 -1.631086,4.2667 -3.657144,4.2667 l -24.685712,0 c -2.026058,0 -3.6571436682571,-1.9029 -3.6571436682571,-4.2667 l 0,-23.4666 c 0,-2.3638 1.6310856682571,-4.2667 3.6571436682571,-4.2667 z"
       style="opacity:1;fill:#84edb7;fill-opacity:0.83596209;stroke:none;stroke-width:0.00009032;stroke-linejoin:round;stroke-miterlimit:4;stroke-dasharray:none;stroke-opacity:1;image-rendering:auto" />
    <path
       style="opacity:0.261;fill:#18a55d;fill-opacity:0.75078863;stroke:none;stroke-width:0.99904996;stroke-linejoin:round;stroke-miterlimit:4;stroke-dasharray:none;stroke-opacity:1;image-rendering:auto;fill-rule:nonzero"
       d="m 1.635844,1021.1206 c -0.96132208,0.7661 -1.59017235,2.0541 -1.59017235,3.5199 l 0,23.4353 c 0,2.3606 1.63016315,4.261 3.65507375,4.261 l 24.6717486,0 c 1.361376,0 2.543401,-0.8597 3.17249,-2.1401 -0.586827,0.4677 -1.297359,0.7411 -2.064902,0.7411 l -24.6717489,0 c -2.0249116,0 -3.6550738,-1.9004 -3.6550738,-4.2609 l 0,-23.4354 c 0,-0.7735 0.1759652,-1.4969 0.4825847,-2.1209 z"
       id="rect5918"
       inkscape:connector-curvature="0" />
    <path
       inkscape:connector-curvature="0"
       style="opacity:0.30100002;fill:#ffffff;fill-opacity:1;stroke:none;stroke-width:0.00009032;stroke-linejoin:round;stroke-miterlimit:4;stroke-dasharray:none;stroke-opacity:1;image-rendering:auto"
       d="m 28.85396,1023.5848 a 2.477734,2.5486663 0 0 1 -2.477734,2.5487 2.477734,2.5486663 0 0 1 -2.477734,-2.5487 2.477734,2.5486663 0 0 1 2.477734,-2.5487 2.477734,2.5486663 0 0 1 2.477734,2.5487 z"
       id="path5960" />
    <path
       inkscape:connector-curvature="0"
       style="opacity:0.30100002;fill:#ffffff;fill-opacity:1;stroke:none;stroke-width:0.00009032;stroke-linejoin:round;stroke-miterlimit:4;stroke-dasharray:none;stroke-opacity:1;image-rendering:auto"
       d="m 30.871785,1027.4789 a 1.4344776,1.4084734 0 0 1 -1.434477,1.4084 1.4344776,1.4084734 0 0 1 -1.434478,-1.4084 1.4344776,1.4084734 0 0 1 1.434478,-1.4085 1.4344776,1.4084734 0 0 1 1.434477,1.4085 z"
       id="circle5962" />
    <path
       inkscape:connector-curvature="0"
       style="opacity:0.30100002;fill:#ffffff;fill-opacity:1;stroke:none;stroke-width:0.00009032;stroke-linejoin:round;stroke-miterlimit:4;stroke-dasharray:none;stroke-opacity:1;image-rendering:auto"
       d="m 22.77694,1022.8165 a 1.4344776,1.4084734 0 0 1 -1.434477,1.4084 1.4344776,1.4084734 0 0 1 -1.434477,-1.4084 1.4344776,1.4084734 0 0 1 1.434477,-1.4085 1.4344776,1.4084734 0 0 1 1.434477,1.4085 z"
       id="ellipse5964" />
    <text
       xml:space="preserve"
       style="font-style:normal;font-variant:normal;font-weight:normal;font-stretch:normal;line-height:0%;font-family:sans-serif;-inkscape-font-specification:'sans-serif, Normal';text-align:center;letter-spacing:0px;word-spacing:0px;writing-mode:lr-tb;text-anchor:middle;fill:#000000;fill-opacity:1;stroke:none;stroke-width:1px;stroke-linecap:butt;stroke-linejoin:miter;stroke-opacity:1"
       x="7.2316213"
       y="1031.1805"
       id="text6110"><tspan
         sodipodi:role="line"
         x="9.6193161"
         y="1031.1805"
         id="tspan6116"
         style="font-size:15px;line-height:1.25"> </tspan></text>
    <text
       xml:space="preserve"
       style="font-style:normal;font-variant:normal;font-weight:normal;font-stretch:normal;font-size:8.70062447px;line-height:0%;font-family:'Buxton Sketch';-inkscape-font-specification:'Buxton Sketch, Normal';text-align:center;letter-spacing:0px;word-spacing:0px;writing-mode:lr-tb;text-anchor:middle;fill:#000000;fill-opacity:1;stroke:none;stroke-width:0.725052px;stroke-linecap:butt;stroke-linejoin:miter;stroke-opacity:1"
       x="15.885942"
       y="1034.9231"
       id="text6123"><tspan
         sodipodi:role="line"
         x="15.885942"
         y="1034.9231"
         id="tspan6127"
         style="font-size:4.98473263px;line-height:1.25;stroke-width:0.725052px">For the</tspan><tspan
         sodipodi:role="line"
         x="15.885942"
         y="1041.1541"
         id="tspan6129"
         style="font-size:4.98473263px;line-height:1.25;stroke-width:0.725052px">Health of it</tspan></text>
  </g>
</svg>
