<?xml version="1.0" encoding="UTF-8" standalone="no"?>
<!-- Created with Inkscape (http://www.inkscape.org/) -->

<svg
   xmlns:dc="http://purl.org/dc/elements/1.1/"
   xmlns:cc="http://creativecommons.org/ns#"
   xmlns:rdf="http://www.w3.org/1999/02/22-rdf-syntax-ns#"
   xmlns:svg="http://www.w3.org/2000/svg"
   xmlns="http://www.w3.org/2000/svg"
   xmlns:sodipodi="http://sodipodi.sourceforge.net/DTD/sodipodi-0.dtd"
   xmlns:inkscape="http://www.inkscape.org/namespaces/inkscape"
   width="1080"
   height="1920"
   viewBox="0 0 1080 1920.0001"
   id="svg4196"
   version="1.1"
   inkscape:version="0.92.2 (5c3e80d, 2017-08-06)"
   sodipodi:docname="homepageinitial1641.svg">
  <defs
     id="defs4198" />
  <sodipodi:namedview
     id="base"
     pagecolor="#ffffff"
     bordercolor="#666666"
     borderopacity="1.0"
     inkscape:pageopacity="0.0"
     inkscape:pageshadow="2"
     inkscape:zoom="0.49497475"
     inkscape:cx="566.3556"
     inkscape:cy="1122.3884"
     inkscape:document-units="px"
     inkscape:current-layer="layer1"
     showgrid="true"
     units="px"
     inkscape:window-width="958"
     inkscape:window-height="1008"
     inkscape:window-x="953"
     inkscape:window-y="0"
     inkscape:window-maximized="0"
     showborder="true"
     inkscape:pagecheckerboard="false"
     showguides="true"
     objecttolerance="3"
     gridtolerance="10">
    <inkscape:grid
       type="xygrid"
       id="grid4790"
       visible="true"
       snapvisiblegridlinesonly="false"
       empspacing="70" />
  </sodipodi:namedview>
  <metadata
     id="metadata4201">
    <rdf:RDF>
      <cc:Work
         rdf:about="">
        <dc:format>image/svg+xml</dc:format>
        <dc:type
           rdf:resource="http://purl.org/dc/dcmitype/StillImage" />
        <dc:title></dc:title>
      </cc:Work>
    </rdf:RDF>
  </metadata>
  <g
     inkscape:label="Layer 1"
     inkscape:groupmode="layer"
     id="layer1"
     transform="translate(0,867.63819)">
    <rect
       style="fill:#010b29;fill-opacity:1;stroke:#333333"
       id="rect4675"
       width="1079"
       height="1917"
       x="2"
       y="-866.63818"
       ry="15.838" />
    <g
       id="g10838"
       style="fill:#d73e9a;fill-opacity:1">
      <path
         style="opacity:1;fill:#d73e9a;fill-opacity:1;stroke:none;stroke-width:0.00110642;stroke-linejoin:round;stroke-miterlimit:4;stroke-dasharray:none;stroke-opacity:1;image-rendering:auto"
         d="m 138.78248,-420.70303 h 302.4 c 24.81921,0 44.80001,23.31053 44.80001,52.26708 v 287.465873 c 0,28.956552 -19.9808,52.267079 -44.80001,52.267079 h -302.4 c -24.81921,0 -44.800014,-23.310527 -44.800014,-52.267079 V -368.43595 c 0,-28.95655 19.980804,-52.26708 44.800014,-52.26708 z"
         id="rect5913-3"
         inkscape:connector-curvature="0" />
    </g>
    <path
       style="opacity:0.26100003;fill:#18a55d;fill-opacity:0.75078861;fill-rule:nonzero;stroke:none;stroke-width:12.23836327;stroke-linejoin:round;stroke-miterlimit:4;stroke-dasharray:none;stroke-opacity:1;image-rendering:auto"
       d="m 114.02155,-411.41263 c -11.77619,9.38473 -19.47961,25.16273 -19.47961,43.11878 v 287.082448 c 0,28.917352 19.9695,52.197254 44.77466,52.197254 h 302.22894 c 16.67686,0 31.15667,-10.531326 38.86301,-26.216227 -7.18863,5.729326 -15.89265,9.078476 -25.29505,9.078476 H 152.88455 c -24.80517,0 -44.77466,-23.279902 -44.77466,-52.196029 V -385.4316 c 0,-9.47538 2.15557,-18.33703 5.91166,-25.98103 z"
       id="rect5918-6"
       inkscape:connector-curvature="0" />
    <path
       inkscape:connector-curvature="0"
       style="opacity:0.30100002;fill:#ffffff;fill-opacity:1;stroke:none;stroke-width:0.00110642;stroke-linejoin:round;stroke-miterlimit:4;stroke-dasharray:none;stroke-opacity:1;image-rendering:auto"
       d="m 447.4435,-381.22618 a 30.352244,31.221165 0 0 1 -30.35224,31.22158 30.352244,31.221165 0 0 1 -30.35225,-31.22158 30.352244,31.221165 0 0 1 30.35225,-31.22157 30.352244,31.221165 0 0 1 30.35224,31.22157 z"
       id="path5960-0" />
    <path
       inkscape:connector-curvature="0"
       style="opacity:0.30100002;fill:#ffffff;fill-opacity:1;stroke:none;stroke-width:0.00110642;stroke-linejoin:round;stroke-miterlimit:4;stroke-dasharray:none;stroke-opacity:1;image-rendering:auto"
       d="m 472.16186,-333.52345 a 17.572352,17.253801 0 0 1 -17.57235,17.2529 17.572352,17.253801 0 0 1 -17.57235,-17.2529 17.572352,17.253801 0 0 1 17.57235,-17.25412 17.572352,17.253801 0 0 1 17.57235,17.25412 z"
       id="circle5962-3" />
    <path
       inkscape:connector-curvature="0"
       style="opacity:0.30100002;fill:#ffffff;fill-opacity:1;stroke:none;stroke-width:0.00110642;stroke-linejoin:round;stroke-miterlimit:4;stroke-dasharray:none;stroke-opacity:1;image-rendering:auto"
       d="m 373,-390.63785 a 17.572352,17.253801 0 0 1 -17.57234,17.2529 17.572352,17.253801 0 0 1 -17.57235,-17.2529 17.572352,17.253801 0 0 1 17.57235,-17.25413 A 17.572352,17.253801 0 0 1 373,-390.63785 Z"
       id="ellipse5964-92" />
    <text
       xml:space="preserve"
       style="font-style:normal;font-variant:normal;font-weight:normal;font-stretch:semi-expanded;font-size:117.66195679px;line-height:125%;font-family:'Goudy Old Style';-inkscape-font-specification:'Goudy Old Style, Semi-Expanded';text-align:center;letter-spacing:0px;word-spacing:0px;writing-mode:lr-tb;text-anchor:middle;fill:#000000;fill-opacity:1;stroke:none;stroke-width:7.84413004px;stroke-linecap:butt;stroke-linejoin:miter;stroke-opacity:1"
       x="289.99655"
       y="-274.64828"
       id="text4706"><tspan
         sodipodi:role="line"
         id="tspan4710"
         style="font-style:normal;font-variant:normal;font-weight:normal;font-stretch:semi-expanded;font-size:78.44129944px;line-height:125%;font-family:'Goudy Old Style';-inkscape-font-specification:'Goudy Old Style, Semi-Expanded';text-align:center;writing-mode:lr-tb;text-anchor:middle;stroke-width:7.84413004px"
         x="299.80173"
         y="-274.64828">Don't </tspan><tspan
         sodipodi:role="line"
         id="tspan4712"
         style="font-style:normal;font-variant:normal;font-weight:normal;font-stretch:semi-expanded;font-size:78.44129944px;line-height:125%;font-family:'Goudy Old Style';-inkscape-font-specification:'Goudy Old Style, Semi-Expanded';text-align:center;writing-mode:lr-tb;text-anchor:middle;stroke-width:7.84413004px"
         x="289.99655"
         y="-127.57082">Panic</tspan></text>
    <path
       style="opacity:0;fill:#ff0000;stroke:none;stroke-width:1px;stroke-linecap:butt;stroke-linejoin:miter;stroke-opacity:1"
       d="m 916.14367,110.46909 c -91.51423,-2.90428 -164.69378,-10.37343 -192.48552,-19.646242 -15.42751,-5.14744 -17.36777,-9.096 -6.97301,-14.19053 20.59223,-10.09235 83.06978,-17.49171 185.52996,-21.97271 28.64968,-1.25297 154.7408,-1.25445 183.9286,-0.002 100.8803,4.32823 164.7861,11.8487 185.5498,21.83562 8.5181,4.09708 8.9073,7.03756 1.4539,10.98674 -21.0513,11.15403 -96.9102,19.704972 -204.5037,23.052012 -25.6175,0.79691 -126.72317,0.75533 -152.50003,-0.0627 z"
       id="path3375"
       inkscape:connector-curvature="0" />
    <ellipse
       style="opacity:0.30100002;fill:#ffffff;fill-opacity:0;stroke:none;stroke-width:0.00009032;stroke-linejoin:round;stroke-miterlimit:4;stroke-dasharray:none;stroke-opacity:1"
       id="path5956"
       cx="1049.0532"
       cy="65.756783"
       rx="30.66975"
       ry="23.648962" />
    <g
       id="g4630"
       transform="translate(264.27642,3809.6299)">
      <g
         id="g4835"
         transform="matrix(12.607143,0,0,12.607143,608.57144,-13452.062)">
        <path
           inkscape:connector-curvature="0"
           id="rect5913-0"
           d="m 3.657144,1020.3622 h 24.685712 c 2.026058,0 3.657144,1.9029 3.657144,4.2667 v 23.4666 c 0,2.3638 -1.631086,4.2667 -3.657144,4.2667 H 3.657144 c -2.026058,0 -3.6571436682571,-1.9029 -3.6571436682571,-4.2667 v -23.4666 c 0,-2.3638 1.6310856682571,-4.2667 3.6571436682571,-4.2667 z"
           style="opacity:1;fill:#ffeeaa;fill-opacity:0.83596209;stroke:none;stroke-width:0.00009032;stroke-linejoin:round;stroke-miterlimit:4;stroke-dasharray:none;stroke-opacity:1;image-rendering:auto" />
        <path
           style="opacity:0.26100003;fill:#18a55d;fill-opacity:0.75078861;fill-rule:nonzero;stroke:none;stroke-width:0.99904996;stroke-linejoin:round;stroke-miterlimit:4;stroke-dasharray:none;stroke-opacity:1;image-rendering:auto"
           d="m 1.635844,1021.1206 c -0.96132208,0.7661 -1.59017235,2.0541 -1.59017235,3.5199 v 23.4353 c 0,2.3606 1.63016315,4.261 3.65507375,4.261 H 28.372494 c 1.361376,0 2.543401,-0.8597 3.17249,-2.1401 -0.586827,0.4677 -1.297359,0.7411 -2.064902,0.7411 H 4.8083331 c -2.0249116,0 -3.6550738,-1.9004 -3.6550738,-4.2609 v -23.4354 c 0,-0.7735 0.1759652,-1.4969 0.4825847,-2.1209 z"
           id="rect5918-7"
           inkscape:connector-curvature="0" />
        <path
           inkscape:connector-curvature="0"
           style="opacity:0.30100002;fill:#ffffff;fill-opacity:1;stroke:none;stroke-width:0.00009032;stroke-linejoin:round;stroke-miterlimit:4;stroke-dasharray:none;stroke-opacity:1;image-rendering:auto"
           d="m 28.85396,1023.5848 a 2.477734,2.5486663 0 0 1 -2.477734,2.5487 2.477734,2.5486663 0 0 1 -2.477734,-2.5487 2.477734,2.5486663 0 0 1 2.477734,-2.5487 2.477734,2.5486663 0 0 1 2.477734,2.5487 z"
           id="path5960-9" />
        <path
           inkscape:connector-curvature="0"
           style="opacity:0.30100002;fill:#ffffff;fill-opacity:1;stroke:none;stroke-width:0.00009032;stroke-linejoin:round;stroke-miterlimit:4;stroke-dasharray:none;stroke-opacity:1;image-rendering:auto"
           d="m 30.871785,1027.4789 a 1.4344776,1.4084734 0 0 1 -1.434477,1.4084 1.4344776,1.4084734 0 0 1 -1.434478,-1.4084 1.4344776,1.4084734 0 0 1 1.434478,-1.4085 1.4344776,1.4084734 0 0 1 1.434477,1.4085 z"
           id="circle5962-6" />
        <path
           inkscape:connector-curvature="0"
           style="opacity:0.30100002;fill:#ffffff;fill-opacity:1;stroke:none;stroke-width:0.00009032;stroke-linejoin:round;stroke-miterlimit:4;stroke-dasharray:none;stroke-opacity:1;image-rendering:auto"
           d="m 22.77694,1022.8165 a 1.4344776,1.4084734 0 0 1 -1.434477,1.4084 1.4344776,1.4084734 0 0 1 -1.434477,-1.4084 1.4344776,1.4084734 0 0 1 1.434477,-1.4085 1.4344776,1.4084734 0 0 1 1.434477,1.4085 z"
           id="ellipse5964-9" />
        <text
           xml:space="preserve"
           style="font-style:normal;font-variant:normal;font-weight:normal;font-stretch:normal;font-size:6.18778753px;line-height:125%;font-family:'Buxton Sketch';-inkscape-font-specification:'Buxton Sketch, Normal';text-align:center;letter-spacing:0px;word-spacing:0px;writing-mode:lr-tb;text-anchor:middle;fill:#000000;fill-opacity:1;stroke:none;stroke-width:0.82503837px;stroke-linecap:butt;stroke-linejoin:miter;stroke-opacity:1"
           x="15.878678"
           y="1034.9939"
           id="text4809"><tspan
             style="stroke-width:0.82503837px"
             sodipodi:role="line"
             id="tspan4813"
             x="15.878677"
             y="1034.9939">Bullet</tspan><tspan
             style="stroke-width:0.82503837px"
             sodipodi:role="line"
             id="tspan4815"
             x="15.878678"
             y="1042.7286">Journal</tspan></text>
      </g>
      <g
         id="g5487"
         transform="matrix(12.339286,0,0,12.339286,602.85716,-12655.894)">
        <path
           inkscape:connector-curvature="0"
           id="rect5913-5"
           d="m 3.657144,1020.3622 h 24.685712 c 2.026058,0 3.657144,1.9029 3.657144,4.2667 v 23.4666 c 0,2.3638 -1.631086,4.2667 -3.657144,4.2667 H 3.657144 c -2.026058,0 -3.6571436682571,-1.9029 -3.6571436682571,-4.2667 v -23.4666 c 0,-2.3638 1.6310856682571,-4.2667 3.6571436682571,-4.2667 z"
           style="opacity:1;fill:#ff9955;fill-opacity:0.83596209;stroke:none;stroke-width:0.00009032;stroke-linejoin:round;stroke-miterlimit:4;stroke-dasharray:none;stroke-opacity:1;image-rendering:auto" />
        <path
           style="opacity:0.26100003;fill:#18a55d;fill-opacity:0.75078861;fill-rule:nonzero;stroke:none;stroke-width:0.99904996;stroke-linejoin:round;stroke-miterlimit:4;stroke-dasharray:none;stroke-opacity:1;image-rendering:auto"
           d="m 1.635844,1021.1206 c -0.96132208,0.7661 -1.59017235,2.0541 -1.59017235,3.5199 v 23.4353 c 0,2.3606 1.63016315,4.261 3.65507375,4.261 H 28.372494 c 1.361376,0 2.543401,-0.8597 3.17249,-2.1401 -0.586827,0.4677 -1.297359,0.7411 -2.064902,0.7411 H 4.8083331 c -2.0249116,0 -3.6550738,-1.9004 -3.6550738,-4.2609 v -23.4354 c 0,-0.7735 0.1759652,-1.4969 0.4825847,-2.1209 z"
           id="rect5918-0"
           inkscape:connector-curvature="0" />
        <g
           id="g5482">
          <path
             id="path5960-1"
             d="m 28.85396,1023.5848 a 2.477734,2.5486663 0 0 1 -2.477734,2.5487 2.477734,2.5486663 0 0 1 -2.477734,-2.5487 2.477734,2.5486663 0 0 1 2.477734,-2.5487 2.477734,2.5486663 0 0 1 2.477734,2.5487 z"
             style="opacity:0.30100002;fill:#ffffff;fill-opacity:1;stroke:none;stroke-width:0.00009032;stroke-linejoin:round;stroke-miterlimit:4;stroke-dasharray:none;stroke-opacity:1;image-rendering:auto"
             inkscape:connector-curvature="0" />
          <path
             id="circle5962-69"
             d="m 30.871785,1027.4789 a 1.4344776,1.4084734 0 0 1 -1.434477,1.4084 1.4344776,1.4084734 0 0 1 -1.434478,-1.4084 1.4344776,1.4084734 0 0 1 1.434478,-1.4085 1.4344776,1.4084734 0 0 1 1.434477,1.4085 z"
             style="opacity:0.30100002;fill:#ffffff;fill-opacity:1;stroke:none;stroke-width:0.00009032;stroke-linejoin:round;stroke-miterlimit:4;stroke-dasharray:none;stroke-opacity:1;image-rendering:auto"
             inkscape:connector-curvature="0" />
          <path
             id="ellipse5964-3"
             d="m 22.77694,1022.8165 a 1.4344776,1.4084734 0 0 1 -1.434477,1.4084 1.4344776,1.4084734 0 0 1 -1.434477,-1.4084 1.4344776,1.4084734 0 0 1 1.434477,-1.4085 1.4344776,1.4084734 0 0 1 1.434477,1.4085 z"
             style="opacity:0.30100002;fill:#ffffff;fill-opacity:1;stroke:none;stroke-width:0.00009032;stroke-linejoin:round;stroke-miterlimit:4;stroke-dasharray:none;stroke-opacity:1;image-rendering:auto"
             inkscape:connector-curvature="0" />
        </g>
      </g>
      <text
         id="text5468"
         y="167.88307"
         x="806.80591"
         style="font-style:normal;font-variant:normal;font-weight:normal;font-stretch:normal;font-size:145.93234253px;line-height:125%;font-family:sans-serif;-inkscape-font-specification:'sans-serif, Normal';text-align:center;letter-spacing:0px;word-spacing:0px;writing-mode:lr-tb;text-anchor:middle;fill:#000000;fill-opacity:1;stroke:none;stroke-width:0.78844291px;stroke-linecap:butt;stroke-linejoin:miter;stroke-opacity:1"
         xml:space="preserve"><tspan
           style="font-style:normal;font-variant:normal;font-weight:normal;font-stretch:normal;font-size:97.28822327px;line-height:125%;font-family:'Buxton Sketch';-inkscape-font-specification:'Buxton Sketch, Normal';text-align:center;writing-mode:lr-tb;text-anchor:middle;stroke-width:0.78844291px"
           y="167.88307"
           x="806.80591"
           id="tspan5470"
           sodipodi:role="line">Timer</tspan></text>
    </g>
    <g
       id="g4610"
       transform="translate(-260.66446,1542.373)">
      <path
         style="opacity:1;fill:#84edb7;fill-opacity:0.83596209;stroke:none;stroke-width:0.00009032;stroke-linejoin:round;stroke-miterlimit:4;stroke-dasharray:none;stroke-opacity:1;image-rendering:auto"
         d="M 645.45317,457.50475 H 952.2613 c 25.18102,0 45.45297,23.65033 45.45297,53.02899 v 291.65632 c 0,29.37866 -20.27195,53.029 -45.45297,53.029 H 645.45317 c -25.18103,0 -45.45316,-23.65034 -45.45316,-53.029 V 510.53374 c 0,-29.37866 20.27213,-53.02899 45.45316,-53.02899 z"
         id="rect5913-4"
         inkscape:connector-curvature="0" />
      <path
         inkscape:connector-curvature="0"
         id="rect5918-1"
         d="m 620.33117,466.93058 c -11.94784,9.52152 -19.76354,25.52952 -19.76354,43.74733 v 291.26731 c 0,29.33889 20.26068,52.95815 45.42742,52.95815 h 306.63463 c 16.91988,0 31.61078,-10.68485 39.42949,-26.59839 -7.2934,5.81284 -16.1243,9.21082 -25.66373,9.21082 H 659.76069 c -25.16674,0 -45.42729,-23.61927 -45.42729,-52.9569 V 493.29034 c 0,-9.6135 2.18704,-18.60434 5.99777,-26.35976 z"
         style="opacity:0.26100003;fill:#18a55d;fill-opacity:0.75078861;fill-rule:nonzero;stroke:none;stroke-width:0.99904996;stroke-linejoin:round;stroke-miterlimit:4;stroke-dasharray:none;stroke-opacity:1;image-rendering:auto" />
      <path
         id="path5960-6"
         d="m 958.61354,497.55707 a 30.794699,31.676286 0 0 1 -30.79465,31.6767 30.794699,31.676286 0 0 1 -30.79465,-31.6767 30.794699,31.676286 0 0 1 30.79465,-31.6767 30.794699,31.676286 0 0 1 30.79465,31.6767 z"
         style="opacity:0.30100002;fill:#ffffff;fill-opacity:1;stroke:none;stroke-width:0.00009032;stroke-linejoin:round;stroke-miterlimit:4;stroke-dasharray:none;stroke-opacity:1;image-rendering:auto"
         inkscape:connector-curvature="0" />
      <path
         id="circle5962-0"
         d="m 983.69226,545.95517 a 17.828511,17.505314 0 0 1 -17.82851,17.5044 17.828511,17.505314 0 0 1 -17.82854,-17.5044 17.828511,17.505314 0 0 1 17.82854,-17.50564 17.828511,17.505314 0 0 1 17.82851,17.50564 z"
         style="opacity:0.30100002;fill:#ffffff;fill-opacity:1;stroke:none;stroke-width:0.00009032;stroke-linejoin:round;stroke-miterlimit:4;stroke-dasharray:none;stroke-opacity:1;image-rendering:auto"
         inkscape:connector-curvature="0" />
      <path
         id="ellipse5964-7"
         d="m 883.08486,488.00819 a 17.828511,17.505314 0 0 1 -17.82842,17.5044 17.828511,17.505314 0 0 1 -17.82853,-17.5044 17.828511,17.505314 0 0 1 17.82853,-17.50564 17.828511,17.505314 0 0 1 17.82842,17.50564 z"
         style="opacity:0.30100002;fill:#ffffff;fill-opacity:1;stroke:none;stroke-width:0.00009032;stroke-linejoin:round;stroke-miterlimit:4;stroke-dasharray:none;stroke-opacity:1;image-rendering:auto"
         inkscape:connector-curvature="0" />
      <text
         id="text6123"
         y="639.60004"
         x="797.60394"
         style="font-style:normal;font-variant:normal;font-weight:normal;font-stretch:normal;font-size:57.49652481px;line-height:125%;font-family:'Buxton Sketch';-inkscape-font-specification:'Buxton Sketch, Normal';text-align:center;letter-spacing:0px;word-spacing:0px;writing-mode:lr-tb;text-anchor:middle;fill:#000000;fill-opacity:1;stroke:none;stroke-width:0.67289555px;stroke-linecap:butt;stroke-linejoin:miter;stroke-opacity:1"
         xml:space="preserve"><tspan
           style="stroke-width:0.67289555px"
           id="tspan6127"
           y="639.60004"
           x="797.60394"
           sodipodi:role="line">For the</tspan><tspan
           style="stroke-width:0.67289555px"
           id="tspan6129"
           y="711.4707"
           x="797.60394"
           sodipodi:role="line">Health of it</tspan></text>
      <path
         style="opacity:1;fill:#c6afe9;fill-opacity:0.83596209;stroke:none;stroke-width:0.00009032;stroke-linejoin:round;stroke-miterlimit:4;stroke-dasharray:none;stroke-opacity:1;image-rendering:auto"
         d="m 129.86115,460.3619 h 297.99192 c 24.45732,0 44.14691,22.97072 44.14691,51.50516 v 283.2754 c 0,28.53444 -19.68959,51.50517 -44.14691,51.50517 H 129.86115 c -24.45744,0 -44.146903,-22.97073 -44.146903,-51.50517 v -283.2754 c 0,-28.53444 19.689463,-51.50516 44.146903,-51.50516 z"
         id="rect5913-36"
         inkscape:connector-curvature="0" />
      <path
         inkscape:connector-curvature="0"
         id="rect5918-13"
         d="m 105.46117,469.51687 c -11.604502,9.24792 -19.195621,24.79592 -19.195621,42.49022 v 282.89756 c 0,28.49582 19.678351,51.43637 44.121911,51.43637 h 297.82329 c 16.4338,0 30.70259,-10.37782 38.29661,-25.83408 -7.08388,5.64582 -15.66099,8.94615 -24.92642,8.94615 H 143.75766 c -24.44356,0 -44.121916,-22.94055 -44.121916,-51.43516 V 495.11916 c 0,-9.33725 2.124086,-18.06972 5.825426,-25.60229 z"
         style="opacity:0.26100003;fill:#18a55d;fill-opacity:0.75078861;fill-rule:nonzero;stroke:none;stroke-width:0.99904996;stroke-linejoin:round;stroke-miterlimit:4;stroke-dasharray:none;stroke-opacity:1;image-rendering:auto" />
      <path
         id="path5960-3"
         d="m 434.02278,499.26329 a 29.909794,30.766048 0 0 1 -29.90975,30.76645 29.909794,30.766048 0 0 1 -29.90985,-30.76645 29.909794,30.766048 0 0 1 29.90985,-30.76646 29.909794,30.766048 0 0 1 29.90975,30.76646 z"
         style="opacity:0.30100002;fill:#ffffff;fill-opacity:1;stroke:none;stroke-width:0.00009032;stroke-linejoin:round;stroke-miterlimit:4;stroke-dasharray:none;stroke-opacity:1;image-rendering:auto"
         inkscape:connector-curvature="0" />
      <path
         id="circle5962-65"
         d="m 458.38087,546.27064 a 17.316198,17.002288 0 0 1 -17.31622,17.0014 17.316198,17.002288 0 0 1 -17.31623,-17.0014 17.316198,17.002288 0 0 1 17.31623,-17.00262 17.316198,17.002288 0 0 1 17.31622,17.00262 z"
         style="opacity:0.30100002;fill:#ffffff;fill-opacity:1;stroke:none;stroke-width:0.00009032;stroke-linejoin:round;stroke-miterlimit:4;stroke-dasharray:none;stroke-opacity:1;image-rendering:auto"
         inkscape:connector-curvature="0" />
      <path
         id="ellipse5964-5"
         d="m 360.66446,489.9888 a 17.316198,17.002288 0 0 1 -17.31623,17.00141 17.316198,17.002288 0 0 1 -17.3161,-17.00141 17.316198,17.002288 0 0 1 17.3161,-17.0026 17.316198,17.002288 0 0 1 17.31623,17.0026 z"
         style="opacity:0.30100002;fill:#ffffff;fill-opacity:1;stroke:none;stroke-width:0.00009032;stroke-linejoin:round;stroke-miterlimit:4;stroke-dasharray:none;stroke-opacity:1;image-rendering:auto"
         inkscape:connector-curvature="0" />
      <text
         id="text4142"
         y="654.98138"
         x="282.47034"
         style="font-style:normal;font-variant:normal;font-weight:normal;font-stretch:normal;font-size:122.6191864px;line-height:125%;font-family:sans-serif;-inkscape-font-specification:'sans-serif, Normal';text-align:center;letter-spacing:0px;word-spacing:0px;writing-mode:lr-tb;text-anchor:middle;fill:#000000;fill-opacity:1;stroke:none;stroke-width:0.67718679px;stroke-linecap:butt;stroke-linejoin:miter;stroke-opacity:1"
         xml:space="preserve"><tspan
           style="font-style:normal;font-variant:normal;font-weight:normal;font-stretch:normal;font-size:61.3095932px;line-height:125%;font-family:'Buxton Sketch';-inkscape-font-specification:'Buxton Sketch, Normal';text-align:center;writing-mode:lr-tb;text-anchor:middle;stroke-width:0.67718679px"
           y="654.98138"
           x="282.47034"
           id="tspan4144"
           sodipodi:role="line">Soothing</tspan></text>
    </g>
    <path
       inkscape:connector-curvature="0"
       id="rect5913"
       d="m 631.56852,-422.11115 h 297.99182 c 24.45742,0 44.14696,22.97072 44.14696,51.50517 v 283.275393 c 0,28.534444 -19.68954,51.505167 -44.14696,51.505167 H 631.56852 c -24.45741,0 -44.14695,-22.970723 -44.14695,-51.505167 V -370.60598 c 0,-28.53445 19.68954,-51.50517 44.14695,-51.50517 z"
       style="opacity:1;fill:#fefd7c;fill-opacity:1;stroke:none;stroke-width:0.00109029;stroke-linejoin:round;stroke-miterlimit:4;stroke-dasharray:none;stroke-opacity:1;image-rendering:auto" />
    <path
       style="opacity:0.155;fill:#18a55d;fill-opacity:0.75078861;fill-rule:nonzero;stroke:none;stroke-width:12.05996037;stroke-linejoin:round;stroke-miterlimit:4;stroke-dasharray:none;stroke-opacity:1;image-rendering:auto"
       d="m 607.16854,-412.95618 c -11.60453,9.24793 -19.19565,24.79593 -19.19565,42.49023 v 282.897556 c 0,28.495816 19.6784,51.436359 44.12197,51.436359 h 297.82326 c 16.43375,0 30.70248,-10.377807 38.29648,-25.834065 -7.08384,5.645807 -15.66097,8.946136 -24.92631,8.946136 H 645.46502 c -24.44357,0 -44.12196,-22.940544 -44.12196,-51.435156 v -282.89876 c 0,-9.33725 2.12415,-18.06972 5.82548,-25.6023 z"
       id="rect5918"
       inkscape:connector-curvature="0" />
    <path
       inkscape:connector-curvature="0"
       style="opacity:0.30100002;fill:#ffffff;fill-opacity:1;stroke:none;stroke-width:0.00109029;stroke-linejoin:round;stroke-miterlimit:4;stroke-dasharray:none;stroke-opacity:1;image-rendering:auto"
       d="m 935.7301,-383.20976 a 29.90979,30.766044 0 0 1 -29.90979,30.76645 29.90979,30.766044 0 0 1 -29.90979,-30.76645 29.90979,30.766044 0 0 1 29.90979,-30.76645 29.90979,30.766044 0 0 1 29.90979,30.76645 z"
       id="path5960" />
    <path
       inkscape:connector-curvature="0"
       style="opacity:0.30100002;fill:#ffffff;fill-opacity:1;stroke:none;stroke-width:0.00109029;stroke-linejoin:round;stroke-miterlimit:4;stroke-dasharray:none;stroke-opacity:1;image-rendering:auto"
       d="m 960.08813,-336.20241 a 17.316195,17.002287 0 0 1 -17.31619,17.0014 17.316195,17.002287 0 0 1 -17.3162,-17.0014 17.316195,17.002287 0 0 1 17.3162,-17.00261 17.316195,17.002287 0 0 1 17.31619,17.00261 z"
       id="circle5962" />
    <path
       inkscape:connector-curvature="0"
       style="opacity:0.30100002;fill:#ffffff;fill-opacity:1;stroke:none;stroke-width:0.00109029;stroke-linejoin:round;stroke-miterlimit:4;stroke-dasharray:none;stroke-opacity:1;image-rendering:auto"
       d="m 862.37178,-392.48424 a 17.316195,17.002287 0 0 1 -17.31618,17.0014 17.316195,17.002287 0 0 1 -17.31619,-17.0014 17.316195,17.002287 0 0 1 17.31619,-17.00261 17.316195,17.002287 0 0 1 17.31618,17.00261 z"
       id="ellipse5964" />
    <g
       transform="matrix(44.674839,0,0,44.674837,580.7402,-404.27824)"
       id="g4295">
      <g
         id="g4273">
        <g
           id="g4224">
          <path
             transform="scale(0.26458333)"
             inkscape:connector-curvature="0"
             id="path9872"
             d="m 16.916225,6.4728295 c -0.145683,0.099 -0.283964,0.2553676 -0.267444,0.444693 -0.05765,0.3742016 -0.06267,0.7644527 -0.168456,1.1275665 -0.322121,0.5330465 -0.669864,1.0530115 -0.989005,1.5860702 0.03554,0.4167338 0.0651,0.8340648 0.106663,1.2502368 0.105769,0.06558 0.257183,-0.0324 0.379547,-0.01504 0.70553,-0.05019 1.429997,0.05109 2.068766,0.358153 0.257966,0.103769 0.478997,0.278066 0.721176,0.405873 0.09745,-0.142665 0.09009,-0.352776 0.150035,-0.518336 0.05626,-0.284555 0.159016,-0.568309 0.18479,-0.853658 C 18.991386,9.7788094 18.880476,9.299234 18.769568,8.8196585 18.930171,8.5289042 19.123344,8.2481173 19.264163,7.951312 18.485285,7.7109154 17.674414,7.5346885 16.893782,7.2924686 c -0.02178,-0.2671648 0.09182,-0.5348651 0.06252,-0.7996013 -0.0079,-0.013804 -0.02415,-0.022408 -0.04007,-0.020038 z"
             style="fill:#d663bb;fill-opacity:1;stroke:none;stroke-width:0.01677614;stroke-linecap:butt;stroke-linejoin:round" />
          <path
             transform="scale(0.26458333)"
             inkscape:connector-curvature="0"
             id="path9874"
             d="m 20.001617,7.3125681 c -0.111305,0.096741 -0.11307,0.2890329 -0.193316,0.4139583 -0.06038,0.093098 -0.07232,0.2562822 -0.163481,0.3134453 -0.108156,-0.060449 -0.221887,-0.00917 -0.264314,0.1050598 -0.139301,0.2377962 -0.288942,0.4741878 -0.411114,0.7189568 0.103019,0.3857699 0.151464,0.7963281 0.295881,1.1663247 0.135202,-0.039981 0.209874,-0.2145807 0.320087,-0.3037141 0.219965,-0.2504863 0.451592,-0.4947882 0.659608,-0.7531116 0.0091,-0.443351 0.03466,-0.8888835 0.0336,-1.330881 -0.0965,-0.091265 -0.148193,-0.2832409 -0.276953,-0.3300382 z"
             style="fill:#da63f2;fill-opacity:0.73366831;stroke:none;stroke-width:0.01677614;stroke-linecap:butt;stroke-linejoin:round" />
          <path
             transform="scale(0.26458333)"
             inkscape:connector-curvature="0"
             id="path9876"
             d="m 21.360242,5.46391 c -0.331817,0.2790473 -0.671463,0.5638028 -0.969981,0.8731885 -0.08797,0.2372975 -0.235349,0.464187 -0.284201,0.711402 0.06071,0.1197846 0.128884,0.2550786 0.239899,0.3336759 0.119979,-0.07116 0.145061,-0.2584102 0.223942,-0.3725972 0.07443,-0.1454865 0.139712,-0.3094285 0.226755,-0.4406915 0.06372,0.037251 0.210624,0.060788 0.11322,0.1579998 C 20.72707,7.15343 20.4283,7.5592506 20.452313,8.0450783 c -0.0044,0.2814187 -0.03671,0.5691371 -0.01967,0.8465314 0.100878,-0.00566 0.282301,0.027598 0.33941,-0.077993 -0.03118,-0.099916 -0.162903,-0.1482137 -0.194027,-0.2426733 0.358978,-0.5055252 0.75763,-0.9934245 1.129577,-1.4927248 0.07865,-0.4143384 0.19584,-0.8274157 0.248099,-1.2438243 -0.16776,-0.153256 -0.369254,-0.2821765 -0.577335,-0.3736282 z"
             style="fill:#9cb0ff;fill-opacity:1;stroke:none;stroke-width:0.01677614;stroke-linecap:butt;stroke-linejoin:round" />
          <g
             id="g4320">
            <g
               id="g4373">
              <path
                 transform="translate(4.3273199,3.9235345)"
                 id="path7611"
                 style="fill:none;stroke:#000000;stroke-width:0.26458332"
                 d="m 2.08698,-0.27857 0.37935,-0.05063 0.03864,-5.9e-4 0.43679,0.14302 V 0.18677 L 2.50497,0.32979 2.46633,0.3292 2.08698,0.27857 1.94666,0.80224 2.3005,0.94807 2.33426,0.96688 2.64102,1.30913 2.45425,1.63263 2.00447,1.53809 1.9713,1.51826 1.66809,1.28473 1.28473,1.66809 1.51826,1.9713 1.53809,2.00447 1.63263,2.45425 1.30913,2.64102 0.96688,2.33426 0.94807,2.3005 0.80224,1.94666 0.27857,2.08698 0.3292,2.46633 0.32979,2.50497 0.18677,2.94176 H -0.18677 L -0.32979,2.50497 -0.3292,2.46633 -0.27857,2.08698 -0.80224,1.94666 -0.94807,2.3005 -0.96688,2.33426 -1.30913,2.64102 -1.63263,2.45425 -1.53809,2.00447 -1.51826,1.9713 -1.28473,1.66809 -1.66809,1.28473 -1.9713,1.51826 -2.00447,1.53809 -2.45425,1.63263 -2.64102,1.30913 -2.33426,0.96688 -2.3005,0.94807 -1.94666,0.80224 -2.08698,0.27857 -2.46633,0.3292 -2.50497,0.32979 -2.94176,0.18677 v -0.37354 l 0.43679,-0.14302 0.03864,5.9e-4 0.37935,0.05063 0.14032,-0.52367 -0.35384,-0.14583 -0.03376,-0.01881 -0.30676,-0.34225 0.18677,-0.3235 0.44978,0.09454 0.03317,0.01983 0.30321,0.23353 0.38336,-0.38336 -0.23353,-0.30321 -0.01983,-0.03317 -0.09454,-0.44978 0.3235,-0.18677 0.34225,0.30676 0.01881,0.03376 0.14583,0.35384 0.52367,-0.14032 -0.05063,-0.37935 -5.9e-4,-0.03864 0.14302,-0.43679 h 0.37354 l 0.14302,0.43679 -5.9e-4,0.03864 -0.05063,0.37935 0.52367,0.14032 0.14583,-0.35384 0.01881,-0.03376 0.34225,-0.30676 0.3235,0.18677 -0.09454,0.44978 -0.01983,0.03317 -0.23353,0.30321 0.38336,0.38336 0.30321,-0.23353 0.03317,-0.01983 0.44978,-0.09454 0.18677,0.3235 -0.30676,0.34225 -0.03376,0.01881 -0.35384,0.14583 z"
                 inkscape:connector-curvature="0" />
            </g>
            <ellipse
               style="fill:#ffffff;fill-opacity:1;stroke:#111111;stroke-width:0.14311829;stroke-linecap:butt;stroke-linejoin:round"
               id="path7671"
               cx="3.1123977"
               cy="3.4112353"
               rx="0.94959241"
               ry="0.96168584"
               transform="translate(1.2277694,0.53453905)" />
            <path
               style="fill:#ffee55;fill-opacity:1;stroke:none;stroke-width:0.01677614;stroke-linecap:butt;stroke-linejoin:round"
               d="m 11.013022,16.857289 c -0.485286,0.01704 -0.972831,0.0211 -1.4567181,0.04618 -0.098828,0.08427 -0.3286542,0.156547 -0.2236716,0.3272 0.077521,0.307095 0.1659379,0.611357 0.2416748,0.918906 -0.5655386,0.242479 -1.1508713,0.456223 -1.705064,0.713963 -0.064424,0.317226 -0.1662523,0.631887 -0.3919215,0.873584 -0.097451,0.147897 -0.2424669,0.277682 -0.3098953,0.436765 0.059407,0.126903 0.1547299,0.319072 0.3294214,0.241169 0.3886486,-0.07692 0.7817795,-0.15016 1.1576928,-0.275633 0.4876991,-0.359696 0.9623804,-0.736709 1.4430925,-1.105656 0.68059,0.684016 1.369699,1.359717 2.04059,2.05329 -0.375637,0.527709 -0.808978,1.016974 -1.150479,1.567451 -0.07813,0.403437 -0.196596,0.814093 -0.237915,1.215023 0.200342,0.104138 0.395773,0.258046 0.606241,0.325977 0.32827,-0.292464 0.679447,-0.572847 0.978649,-0.889246 0.241656,-0.558536 0.453087,-1.135557 0.706007,-1.686199 0.932633,0.236585 1.862724,0.482794 2.791114,0.735542 -0.0676,0.622347 -0.163713,1.241788 -0.237865,1.863085 0.141191,0.403372 0.251365,0.825478 0.410067,1.218361 0.218426,0.06753 0.457952,0.01719 0.683443,0.03397 0.147892,-0.296341 0.217657,-0.649385 0.335944,-0.967213 0.09538,-0.196627 0.104791,-0.402013 0.0516,-0.611985 -0.05926,-0.503585 -0.155949,-1.01817 -0.188526,-1.515627 0.250146,-0.118351 0.536656,-0.144019 0.797752,-0.240331 -0.0016,-0.16894 -0.145581,-0.328046 -0.198332,-0.492806 -0.415324,-0.868733 -0.810918,-1.74927 -1.246857,-2.606828 -0.352024,-0.334965 -0.87624,-0.289154 -1.29429,-0.486515 -0.671279,-0.249384 -1.267379,-0.69536 -1.726248,-1.245422 -0.225268,-0.204054 -0.504978,-0.337174 -0.765006,-0.487945 -0.480168,0.01365 -0.960336,0.02729 -1.440504,0.04094 z"
               id="path9838"
               inkscape:connector-curvature="0"
               transform="scale(0.26458333)" />
            <path
               style="fill:#ffcc55;fill-opacity:1;stroke:none;stroke-width:0.01677614;stroke-linecap:butt;stroke-linejoin:round"
               d="m 9.0681827,13.551049 c -0.1046309,0.07828 -0.084833,0.265658 -0.1412897,0.382119 -0.040126,0.121634 -0.054311,0.25773 -0.1267854,0.366371 -0.6103383,-0.0668 -1.2178913,-0.15931 -1.8271406,-0.231021 -0.4161114,0.133987 -0.8322197,0.267984 -1.2483251,0.40199 -0.045626,0.217774 0.0064,0.465185 -0.00296,0.693986 0.3066714,0.149302 0.6675323,0.222935 0.9946859,0.343663 0.3036093,0.158612 0.635745,0.0089 0.9550727,-0.0068 0.3773925,-0.04169 0.7644399,-0.114223 1.1361267,-0.14529 0.1639632,0.397133 0.2154428,0.841624 0.3674629,1.240249 0.4454233,0.210465 0.9448109,0.07476 1.4154839,0.08921 0.560218,-0.0229 1.12244,-0.02479 1.681252,-0.06713 0.04654,-0.108155 -0.09659,-0.227313 -0.118069,-0.336389 -0.27507,-0.561818 -0.552497,-1.12436 -0.840602,-1.67849 -0.545088,-0.317078 -1.067377,-0.676343 -1.6259602,-0.968536 -0.1976859,-0.06606 -0.4124545,-0.0725 -0.6189527,-0.08397 z"
               id="path9840"
               inkscape:connector-curvature="0"
               transform="scale(0.26458333)" />
            <path
               style="fill:#ff9655;fill-opacity:1;stroke:none;stroke-width:0.01677614;stroke-linecap:butt;stroke-linejoin:round"
               d="m 12.673017,11.189176 c -0.315323,0.06124 -0.649422,0.07404 -0.953612,0.164083 -0.182522,0.153761 -0.423832,0.268343 -0.571605,0.44482 0.197104,0.370966 0.463138,0.713509 0.618274,1.10171 -0.07551,0.549531 -0.194656,1.094076 -0.275535,1.641375 0.362586,0.692047 0.671676,1.414526 1.073965,2.084488 0.06756,0.08612 0.170339,0.154957 0.275659,0.177874 0.05677,-0.09666 -0.07896,-0.215166 -0.102594,-0.31518 -0.402985,-0.8412 -0.444851,-1.822545 -0.223828,-2.719928 0.272231,-0.960162 0.912605,-1.818413 1.762794,-2.340391 -0.04481,-0.140481 -0.319156,-0.171334 -0.450755,-0.269325 -0.16588,-0.130927 -0.357409,-0.107454 -0.549782,-0.06184 -0.200993,0.03077 -0.401987,0.06154 -0.602981,0.09231 z"
               id="path9842"
               inkscape:connector-curvature="0"
               transform="scale(0.26458333)" />
            <path
               style="fill:#ff5555;fill-opacity:1;stroke:none;stroke-width:0.01677614;stroke-linecap:butt;stroke-linejoin:round"
               d="m 11.073013,7.0147753 c -0.135231,0.011359 0.0061,0.1539646 0.04051,0.2025978 0.335648,0.4527067 0.684923,0.8950109 1.028464,1.3417321 -0.68513,0.6806117 -1.359543,1.3722988 -2.05699,2.0403428 C 9.5892251,10.251783 9.1303165,9.8507451 8.6306801,9.5106857 8.2083254,9.369256 7.7623322,9.2943175 7.3244612,9.2231276 7.1985485,9.4046301 7.0772346,9.6087336 7.0015132,9.8158154 c 0.2581569,0.3517466 0.5705978,0.6641516 0.860208,0.9899296 0.5611748,0.240313 1.1464932,0.447396 1.6921165,0.711497 -0.051646,0.39162 -0.2110658,0.768114 -0.2786181,1.154918 0.1814981,0.261359 0.3282391,0.556885 0.530307,0.798024 0.4911984,0.295603 0.9756904,0.603117 1.4737824,0.886817 0.109409,-0.04746 0.06455,-0.24163 0.112397,-0.340705 0.05901,-0.376167 0.157987,-0.754113 0.17251,-1.133215 -0.17802,-0.324613 -0.357658,-0.659137 -0.585289,-0.949422 -0.333298,0.114116 -0.478729,0.486755 -0.667684,0.756109 -0.08032,0.11184 -0.144499,0.26155 -0.236977,0.352136 -0.2293157,-0.06099 -0.04734,-0.234296 0.02764,-0.363365 0.173658,-0.238221 0.279804,-0.539131 0.498036,-0.735979 0.290848,-0.222867 0.607953,-0.418506 0.877466,-0.665957 -0.04355,-0.126315 -0.240868,-0.131311 -0.341619,-0.205189 -0.252064,-0.115871 -0.502268,-0.235685 -0.753062,-0.354267 0.02439,-0.08213 0.07452,-0.21183 0.173755,-0.115589 0.394984,0.173832 0.782269,0.372869 1.177287,0.545631 0.547654,-0.09226 1.107711,-0.142157 1.64717,-0.267273 0.067,-0.125236 -0.09541,-0.258867 -0.127563,-0.375046 -0.09767,-0.191678 -0.230759,-0.390844 -0.30735,-0.5794323 0.06609,-0.031314 0.16057,-0.1269506 0.187616,-0.00499 0.191335,0.3184903 0.360018,0.6518293 0.552489,0.9686583 0.285792,0.127639 0.564522,0.286971 0.854597,0.395393 0.269926,-0.160442 0.594206,-0.220919 0.86594,-0.354887 -0.02242,-0.433803 -0.06034,-0.873133 -0.102592,-1.3063405 C 14.897025,9.0859687 14.544146,8.5037554 14.095763,7.9997111 13.961082,7.8920851 13.789158,7.8016112 13.621233,7.8952216 13.427325,7.9319103 13.204522,8.0295589 13.026114,8.0262226 12.889063,7.7570942 12.83795,7.4285473 12.625789,7.205597 12.254914,7.0741011 11.843976,7.1070648 11.457118,7.0503708 11.32957,7.0427385 11.201222,7.0180454 11.073013,7.0147753 Z"
               id="path9844"
               inkscape:connector-curvature="0"
               transform="scale(0.26458333)" />
            <path
               style="fill:#ff3232;fill-opacity:0.8894472;stroke:none;stroke-width:0.01677614;stroke-linecap:butt;stroke-linejoin:round"
               d="m 11.306808,5.4713703 c -0.209506,0.047439 -0.373323,0.2123343 -0.566732,0.3007522 -0.04608,0.1707808 0.06522,0.3696705 0.08059,0.5509892 0.05708,0.1601118 0.03781,0.3762945 0.156414,0.5011502 0.417021,0.071059 0.84353,0.1058519 1.264663,0.1283654 0.122878,-0.083156 -0.06611,-0.21334 -0.110188,-0.2903198 -0.0813,-0.1204763 -0.222264,-0.2227914 -0.268557,-0.3587205 0.0515,-0.083368 0.113772,-0.103489 0.162213,0.00123 0.128934,0.1373179 0.226548,0.3126076 0.379363,0.4234453 0.135518,-0.029291 0.01356,-0.2030769 -0.01054,-0.2857701 C 12.167143,6.0999676 11.819063,5.8580542 11.526299,5.5748887 11.463238,5.5248992 11.39176,5.4683758 11.306808,5.4713703 Z"
               id="path9850"
               inkscape:connector-curvature="0"
               transform="scale(0.26458333)" />
            <path
               style="fill:#ff8d55;fill-opacity:1;stroke:none;stroke-width:0.01677614;stroke-linecap:butt;stroke-linejoin:round"
               d="m 9.2080159,12.97692 c -0.063716,0.103567 -0.092398,0.241309 -0.1136299,0.359694 0.08703,0.08023 0.2486299,0.04584 0.3537137,0.01794 0.013142,-0.129533 -0.1308845,-0.244784 -0.1902051,-0.357906 -0.011361,-0.01479 -0.028653,-0.03041 -0.049879,-0.01973 z"
               id="path9856"
               inkscape:connector-curvature="0"
               transform="scale(0.26458333)" />
            <path
               style="fill:#ffe255;fill-opacity:1;stroke:none;stroke-width:0.01677614;stroke-linecap:butt;stroke-linejoin:round"
               d="m 7.4842704,19.300978 c -0.1923925,0.155978 -0.3670174,0.356389 -0.492252,0.570245 0.00893,0.112153 0.1338613,0.06845 0.1608059,-0.01338 0.1223925,-0.175806 0.3009176,-0.337751 0.3712752,-0.538432 -0.00628,-0.01564 -0.024605,-0.02277 -0.039829,-0.01843 z"
               id="path9860"
               inkscape:connector-curvature="0"
               transform="scale(0.26458333)" />
            <path
               style="fill:#9ce255;fill-opacity:1;stroke:none;stroke-width:0.01677614;stroke-linecap:butt;stroke-linejoin:round"
               d="m 19.502829,17.304656 c -0.413724,0.451001 -0.879239,0.870954 -1.447139,1.114367 -0.471033,0.245487 -1.000045,0.346232 -1.525116,0.403267 -0.09075,-0.0039 -0.165023,0.06553 -0.09235,0.149271 0.473814,1.035801 0.953724,2.071357 1.481184,3.080455 0.279325,-0.02129 0.562511,-0.140059 0.841883,-0.199802 0.299082,-0.07241 0.605207,-0.176263 0.90227,-0.224938 0.112318,0.133467 0.108512,0.35949 0.251367,0.459266 0.244035,-0.236895 0.446379,-0.528098 0.647869,-0.805396 0.09471,-0.08192 -0.02765,-0.199334 0.08071,-0.268076 0.1233,-0.14753 0.341056,-0.257698 0.268116,-0.48249 -0.0236,-0.655069 -0.03,-1.313577 -0.06441,-1.966501 -0.353893,-0.393769 -0.658621,-0.84023 -1.064223,-1.183526 -0.08199,-0.04905 -0.188511,-0.08108 -0.28016,-0.0759 z"
               id="path9862"
               inkscape:connector-curvature="0"
               transform="scale(0.26458333)" />
            <path
               style="fill:#9ce22a;fill-opacity:1;stroke:none;stroke-width:0.01677614;stroke-linecap:butt;stroke-linejoin:round"
               d="m 20.734138,21.380225 c -0.244539,0.331747 -0.529396,0.646659 -0.749476,0.988635 0.155106,0.310989 0.236274,0.662027 0.424555,0.953923 0.289292,0.317519 0.627475,0.585881 0.940297,0.879321 0.193207,-0.07206 0.391736,-0.194162 0.564265,-0.321221 0.113713,-0.119958 -0.03197,-0.303667 -0.02302,-0.443942 -0.07073,-0.293161 -0.103643,-0.603612 -0.202254,-0.885025 -0.31017,-0.393477 -0.599723,-0.812947 -0.931683,-1.183221 z"
               id="path9864"
               inkscape:connector-curvature="0"
               transform="scale(0.26458333)" />
            <path
               style="fill:#5ccaf5;fill-opacity:1;stroke:none;stroke-width:0.01677614;stroke-linecap:butt;stroke-linejoin:round"
               d="m 25.348569,9.2310194 c -0.424128,0.070754 -0.850617,0.1474554 -1.264293,0.263821 -0.495046,0.3635529 -0.969128,0.7672836 -1.477004,1.1065186 -0.163887,-0.09916 -0.267018,-0.305507 -0.442311,-0.37073 -0.30262,0.365513 -0.595433,0.749075 -0.853118,1.146656 0.09667,0.123002 0.298844,0.129584 0.435833,0.198123 0.260642,0.104667 0.559175,0.142899 0.799175,0.286669 -0.0081,0.0618 -0.02498,0.181111 -0.116466,0.117638 -0.44836,-0.120107 -0.885197,-0.297545 -1.337725,-0.392742 -0.580364,0.172015 -1.159151,0.352963 -1.729726,0.55477 -0.04642,0.105936 0.128352,0.189407 0.166152,0.27854 0.546182,0.733137 0.848532,1.655661 0.793633,2.570514 -4.5e-5,0.731801 -0.269812,1.439947 -0.644913,2.058177 -0.02884,0.162611 0.207743,0.104363 0.271651,0.212462 0.347246,0.339631 0.637088,0.741957 0.972851,1.085557 0.252297,-0.204084 0.433478,-0.496617 0.647981,-0.74216 0.129582,-0.162043 0.259163,-0.324085 0.388745,-0.486128 0.0579,0.04829 0.185295,0.109792 0.07567,0.182978 -0.3208,0.432715 -0.674853,0.843324 -0.994638,1.274296 0.02579,0.648584 0.02627,1.30437 0.05117,1.948354 0.188989,-0.103177 0.335251,-0.323915 0.507993,-0.471494 0.338779,-0.338548 0.677534,-0.67712 1.016299,-1.015682 0.206674,0.139017 0.392011,0.338014 0.612171,0.444038 0.299441,-0.196636 0.410099,-0.638665 0.794268,-0.71251 0.05985,-0.04029 0.263471,-0.04931 0.207438,-0.148808 -0.346106,-0.188602 -0.746403,-0.306529 -1.086728,-0.478811 0.241159,-0.932147 0.489087,-1.863201 0.744914,-2.791422 0.617431,0.07112 1.232469,0.165891 1.849151,0.240885 0.407151,-0.130452 0.814299,-0.260914 1.221443,-0.391385 0.04999,-0.222648 0.006,-0.476025 0.0209,-0.71014 -0.293213,-0.146035 -0.643116,-0.213603 -0.957841,-0.329872 -0.193154,-0.09515 -0.395637,-0.09813 -0.601862,-0.04874 -0.508917,0.06376 -1.01844,0.142556 -1.527846,0.183904 -0.254643,-0.92214 -0.530419,-1.841168 -0.726664,-2.777796 0.285683,-0.157031 0.633324,-0.268901 0.943046,-0.406166 0.255085,-0.117378 0.537453,-0.194514 0.776363,-0.335808 0.269329,-0.319635 0.583082,-0.613249 0.822187,-0.9529787 -0.07921,-0.2075375 -0.181483,-0.4274536 -0.332689,-0.5899133 -0.0082,-0.00211 -0.01687,-0.00101 -0.02522,-6.166e-4 z"
               id="path9866"
               inkscape:connector-curvature="0"
               transform="scale(0.26458333)" />
            <path
               style="fill:#9ce2f1;fill-opacity:1;stroke:none;stroke-width:0.01677614;stroke-linecap:butt;stroke-linejoin:round"
               d="m 24.2439,18.882588 c -0.179834,0.07129 -0.397036,0.09781 -0.489468,0.292229 -0.101985,0.159419 -0.271898,0.297788 -0.332884,0.473092 0.256488,0.213902 0.517977,0.478334 0.872154,0.501357 0.251157,0.02397 0.477303,0.127961 0.707689,0.218093 0.122999,0.01368 0.271767,0.112847 0.383555,0.05666 0.115386,-0.181317 0.264933,-0.363419 0.313823,-0.57413 -0.114292,-0.252733 -0.357825,-0.427433 -0.527934,-0.642932 -0.179128,-0.166391 -0.34688,-0.429756 -0.60781,-0.438698 -0.106375,0.03811 -0.21275,0.07622 -0.319125,0.114329 z"
               id="path9868"
               inkscape:connector-curvature="0"
               transform="scale(0.26458333)" />
            <path
               style="fill:#9c63bb;fill-opacity:1;stroke:none;stroke-width:0.01677614;stroke-linecap:butt;stroke-linejoin:round"
               d="m 20.683272,9.058201 c -0.197964,0.00961 -0.372089,0.068769 -0.474563,0.2497539 -0.30451,0.3609482 -0.654342,0.6969571 -0.930968,1.0732521 -0.102293,0.470533 -0.240622,0.942043 -0.316118,1.412927 0.09453,0.08243 0.188136,0.271761 0.338133,0.163201 0.585256,-0.188492 1.174866,-0.370983 1.754555,-0.571973 0.323359,-0.435858 0.646718,-0.871717 0.970077,-1.307575 C 21.903545,9.8710083 21.672743,9.7145752 21.51031,9.5268393 21.328796,9.3572418 21.165629,9.1574131 20.97268,9.0066576 c -0.09647,0.017181 -0.192938,0.034362 -0.289408,0.051543 z"
               id="path9870"
               inkscape:connector-curvature="0"
               transform="scale(0.26458333)" />
            <path
               style="fill:#fa1d67;fill-opacity:0.90954775;stroke:none;stroke-width:0.01677614;stroke-linecap:butt;stroke-linejoin:round"
               d="m 16.347521,4.204672 c -0.179704,0.0058 -0.426504,-0.049354 -0.420992,0.2100326 -0.103648,0.3611204 -0.254852,0.7171344 -0.330275,1.0812865 0.07751,0.5990952 0.172948,1.1975224 0.229358,1.7978339 -0.486476,0.1612168 -1.003338,0.2424839 -1.4799,0.4345433 -0.144403,0.1098342 0.06126,0.2720861 0.106786,0.3812732 0.290377,0.4356169 0.601176,0.8572167 0.909347,1.2802623 0.119287,-0.0037 0.154229,-0.210864 0.238895,-0.2931845 0.243577,-0.4002975 0.526171,-0.7864861 0.741944,-1.1978086 0.062,-0.4284189 0.09099,-0.8645317 0.191219,-1.2848917 0.162626,-0.2203742 0.38424,-0.4140446 0.516364,-0.6493149 0.02251,-0.2590047 0.126477,-0.5264109 -0.01178,-0.770488 -0.123101,-0.32781 -0.20262,-0.6881697 -0.352341,-0.996099 -0.111231,-0.00276 -0.226172,0.00517 -0.338629,0.00655 z"
               id="path9878"
               inkscape:connector-curvature="0"
               transform="scale(0.26458333)" />
            <path
               style="fill:#9c63f2;fill-opacity:1;stroke:none;stroke-width:0.01677614;stroke-linecap:butt;stroke-linejoin:round"
               d="m 21.36499,5.4377067 c -0.3401,0.2921643 -0.702387,0.5706629 -0.989499,0.9164989 -0.112435,0.2182429 -0.236116,0.449978 -0.271651,0.6934318 0.05459,0.1198213 0.120127,0.2962862 0.257594,0.3337991 0.197807,-0.2275332 0.277695,-0.5439769 0.458589,-0.785359 0.09364,0.015753 0.109274,0.099494 0.05198,0.1702906 -0.200071,0.4179041 -0.452307,0.8386841 -0.435283,1.3195364 0.0012,0.2657238 -0.05038,0.5530721 -0.0084,0.8039119 0.0958,-0.00546 0.301506,0.055127 0.351677,-0.067199 C 20.77949,8.6916576 20.527018,8.6216335 20.65337,8.5001016 20.996659,8.0216755 21.368032,7.5635213 21.721909,7.0938168 21.792625,6.6668986 21.941413,6.2452558 21.953238,5.8118898 21.801357,5.6508908 21.580046,5.5629557 21.399455,5.4356105 l -0.03151,0.00192 z"
               id="path9880"
               inkscape:connector-curvature="0"
               transform="scale(0.26458333)" />
            <path
               style="fill:#d22372;fill-opacity:0.81407034;stroke:none;stroke-width:0.01677614;stroke-linecap:butt;stroke-linejoin:round"
               d="m 16.904757,6.4699934 c -0.202626,0.1078132 -0.290225,0.3456742 -0.292861,0.5662378 -0.05671,0.4383816 -0.04624,0.9144461 -0.325207,1.2860147 -0.26582,0.4370768 -0.554252,0.8628104 -0.813742,1.302008 0.03801,0.4176481 0.05166,0.8383721 0.113753,1.2533811 0.235818,0.05967 0.512208,0.0092 0.763533,0.02689 0.440374,-0.0173 0.886797,0.01878 1.298687,0.184553 0.400149,0.11589 0.738966,0.367977 1.116024,0.531496 0.106082,-0.04598 0.07532,-0.230033 0.126085,-0.324982 0.07501,-0.347482 0.186434,-0.696039 0.227992,-1.045105 -0.103225,-0.47104 -0.229023,-0.9414407 -0.313261,-1.41412 0.120937,-0.304459 0.357194,-0.5632837 0.437749,-0.8810474 -0.09173,-0.102895 -0.280372,-0.0844 -0.40379,-0.1446715 -0.639333,-0.1810941 -1.286391,-0.3507067 -1.924604,-0.5265029 -0.02001,-0.2636282 0.09671,-0.5423992 0.02867,-0.7997863 -0.0098,-0.010679 -0.02464,-0.016183 -0.03903,-0.014366 z"
               id="path9882"
               inkscape:connector-curvature="0"
               transform="scale(0.26458333)" />
            <path
               style="fill:#da63f2;fill-opacity:0.73366831;stroke:none;stroke-width:0.01677614;stroke-linecap:butt;stroke-linejoin:round"
               d="m 19.995636,7.3138629 c -0.143078,0.2145175 -0.2082,0.484359 -0.319433,0.7193267 -0.224223,-0.064888 -0.323136,0.1084414 -0.404965,0.2878278 -0.08978,0.1937855 -0.262365,0.3712531 -0.300232,0.5754554 0.101958,0.375 0.147517,0.7758139 0.294699,1.1337162 0.135909,-0.03744 0.212262,-0.2125354 0.322712,-0.3010564 0.219477,-0.247821 0.449932,-0.4900583 0.657229,-0.7459655 0.01049,-0.4432695 0.03599,-0.8883856 0.03718,-1.330511 -0.09484,-0.097842 -0.143855,-0.3020594 -0.287188,-0.3387932 z"
               id="path9884"
               inkscape:connector-curvature="0"
               transform="scale(0.26458333)" />
          </g>
        </g>
      </g>
    </g>
    <path
       style="opacity:1;fill:#000000;fill-opacity:1;fill-rule:nonzero;stroke:none;stroke-width:0.00009032;stroke-linejoin:round;stroke-miterlimit:4;stroke-dasharray:none;stroke-opacity:1"
       d="m 789.80183,-143.42481 c 0,-0.2654 -0.37525,-1.1895 -0.83389,-2.0536 -0.45863,-0.8641 -1.44933,-2.9371 -2.20153,-4.6067 -4.67154,-10.3693 -13.8955,-29.2051 -14.56555,-29.7437 -0.43554,-0.3501 -1.35439,-0.9457 -2.04189,-1.3235 l -1.25,-0.687 2.5,-0.01 c 2.8153,-0.012 3.19151,0.1403 3.50252,1.414 0.30567,1.2519 7.87648,17.4135 12.9713,27.69 2.33226,4.7043 4.28795,8.6556 4.34598,8.7806 0.058,0.125 -0.40791,0.4062 -1.03543,0.625 -1.42081,0.4953 -1.39151,0.4971 -1.39151,-0.085 z"
       id="path6925"
       inkscape:connector-curvature="0" />
    <path
       style="opacity:1;fill:#000000;fill-opacity:1;fill-rule:nonzero;stroke:none;stroke-width:0.00009032;stroke-linejoin:round;stroke-miterlimit:4;stroke-dasharray:none;stroke-opacity:1"
       d="m 709.17043,-204.98321 c 0.53666,-0.082 1.50095,-0.083 2.14286,0 0.64191,0.08 0.20282,0.1461 -0.97575,0.1481 -1.17857,0 -1.70377,-0.063 -1.16711,-0.1445 z"
       id="path6927"
       inkscape:connector-curvature="0" />
    <path
       style="opacity:1;fill:#000000;fill-opacity:1;fill-rule:nonzero;stroke:none;stroke-width:0.00009032;stroke-linejoin:round;stroke-miterlimit:4;stroke-dasharray:none;stroke-opacity:1"
       d="m 739.56246,-197.13871 c -3.6971,-3.6463 -5.27665,-4.9272 -7.92762,-6.4286 l -3.3106,-1.875 h -4.52906 c -2.49099,0 -10.23442,0.1719 -17.20764,0.3844 l -12.67857,0.3863 -1.51135,1.0322 -1.51135,1.0322 -0.57018,-2.0417 c -0.3136,-1.1229 -0.65316,-2.3366 -0.75459,-2.6972 -0.15363,-0.5463 -0.0729,-0.596 0.48375,-0.2981 1.97037,1.0545 5.02561,1.146 20.15282,0.6036 8.32434,-0.2985 15.25667,-0.5427 15.40517,-0.5427 0.90725,0 -0.41954,-3.2122 -5.38442,-13.0358 l -5.59556,-11.0714 -8.03572,-4.91365 c -10.68851,-6.53581 -11.74933,-7.04893 -15.09629,-7.30206 -3.18036,-0.24053 -3.6404,-0.45096 -3.30387,-1.51127 0.19789,-0.6235 0.43902,-0.74001 1.19894,-0.57934 1.09823,0.23221 2.99152,-0.20742 3.16755,-0.73551 0.066,-0.19802 -0.5223,-1.35383 -1.30735,-2.56847 -1.14145,-1.76604 -1.3844,-2.42331 -1.21282,-3.28119 0.11801,-0.59003 0.33829,-1.07278 0.48952,-1.07278 0.15123,0 1.25692,1.56697 2.4571,3.48214 1.20017,1.91518 2.54296,3.91653 2.98396,4.44744 0.44101,0.53091 4.72417,3.32693 9.51813,6.21336 8.15042,4.90734 8.74747,5.20543 9.19643,4.59144 0.26407,-0.36114 0.48164,-0.9875 0.48349,-1.39192 0.002,-0.40443 0.31195,-2.2621 0.68912,-4.12817 0.37717,-1.86607 0.95108,-5.20287 1.27536,-7.41511 l 0.58961,-4.02224 -1.66764,-2.94204 c -2.39265,-4.22111 -5.27486,-8.47776 -5.74035,-8.47776 -0.21969,0 -1.05815,0.47718 -1.86325,1.06039 -1.43028,1.03609 -3.1864,3.42094 -6.66108,9.04593 -1.15472,1.86932 -1.90877,2.74858 -2.2936,2.67447 -1.42916,-0.27524 -0.93066,-1.35962 4.43717,-9.65211 0.94732,-1.46347 2.24274,-2.82157 3.75,-3.93146 8.04095,-5.92104 8.93629,-6.69482 8.56004,-7.39784 -0.20003,-0.37376 -0.72547,-0.79229 -1.16765,-0.93006 -1.89212,-0.58953 -11.15793,-5.17551 -11.12537,-5.50635 0.0923,-0.93865 0.17743,-1.07725 0.66121,-1.07725 0.28509,0 3.72762,1.49751 7.65007,3.32781 l 7.13172,3.32781 7.61778,-1.14393 c 11.54284,-1.73333 12.08207,-1.86234 12.08207,-2.89056 0,-0.47155 -1.125,-2.92565 -2.5,-5.45355 -1.375,-2.5279 -2.5,-4.77296 -2.5,-4.98902 0,-0.37219 0.16688,-0.45193 1.12108,-0.5357 0.22373,-0.0197 1.95141,2.66416 3.83928,5.96401 l 3.4325,5.99974 4.93372,2.34228 4.93373,2.34229 2.03056,-0.88617 c 1.11681,-0.4874 3.27355,-1.32886 4.79276,-1.86994 4.22825,-1.5059 3.95779,-0.94943 3.47722,-7.15433 -0.83747,-10.81303 -0.18497,-8.97822 -6.16235,-17.3285 -6.56838,-9.17589 -8.82899,-11.92437 -10.52225,-12.79306 l -1.3352,-0.685 1.44536,-0.3892 c 3.31639,-0.89301 3.54491,-0.88811 3.59876,0.0771 0.0561,1.0047 0.47222,1.64572 7.40019,11.39866 2.75576,3.87947 5.20067,7.05357 5.43312,7.05357 0.58475,0 0.68464,-0.13804 5.12574,-7.08423 6.59954,-10.32213 6.30233,-9.6852 6.96556,-14.92735 0.31979,-2.52756 0.83268,-5.99055 1.13976,-7.69554 0.55352,-3.07325 0.58164,-3.12713 3.26218,-6.25 l 2.70386,-3.15002 -0.23636,1.74628 c -0.13,0.96045 -0.23636,1.96491 -0.23636,2.23214 0,0.26723 -0.22237,0.48587 -0.49416,0.48587 -0.86516,0 -2.92793,2.64979 -3.34898,4.30204 -0.22297,0.87495 -0.58671,3.43903 -0.8083,5.69796 -0.44864,4.57335 -1.14106,7.69599 -2.14129,9.65661 -0.36662,0.71863 -2.98563,4.98829 -5.82003,9.48813 l -5.15344,8.18154 0.4665,5.63827 c 0.77982,9.42499 0.79993,9.52678 1.89442,9.58858 0.51755,0.0292 4.23564,0.0914 8.26242,0.13812 4.02679,0.0467 8.20536,0.26504 9.28572,0.48509 3.96846,0.80833 8.16656,2.40469 13.51874,5.14061 3.01567,1.54154 5.70285,2.71845 5.9715,2.61536 0.26866,-0.10309 0.58614,-0.63629 0.7055,-1.18488 0.11937,-0.54859 0.6772,-2.84565 1.23962,-5.10458 0.56242,-2.25892 1.27004,-5.33102 1.57249,-6.82687 l 0.54991,-2.71974 -1.60087,-6.92312 c -2.4108,-10.42569 -2.40381,-9.98595 -0.21948,-13.80301 1.00549,-1.75706 2.15889,-3.94233 2.56312,-4.85616 0.67093,-1.51674 0.819,-1.64137 1.69936,-1.43035 1.30477,0.31275 1.29893,0.29629 0.51142,1.44189 -0.99183,1.44285 -4.57018,7.67557 -4.84114,8.43224 -0.22,0.61436 1.7067,9.66543 2.67644,12.5731 0.26115,0.78304 0.72167,1.47123 1.02338,1.52933 0.47275,0.091 9.28741,-9.3209 10.94273,-11.68419 0.40143,-0.57312 0.56989,-2.54628 0.73031,-8.55402 0.20668,-7.74052 0.20126,-7.81961 -0.61758,-9.01193 -0.45435,-0.66158 -1.19032,-1.60467 -1.63551,-2.09574 -0.76724,-0.84633 -0.78141,-0.95799 -0.27194,-2.14285 l 0.53748,-1.25 0.64946,1.25037 c 0.95669,1.84185 2.01006,2.70505 2.65144,2.17276 0.28194,-0.234 1.50815,-2.34546 2.72491,-4.69215 1.21675,-2.34668 2.36019,-4.2667 2.54099,-4.2667 0.86641,0 0.55695,1.31359 -1.14774,4.87195 -1.02182,2.13293 -2.16698,4.76198 -2.5448,5.84234 -0.728,2.08166 -1.33569,8.07084 -1.34986,13.30357 l -0.008,3.125 h 1.89285 c 1.04107,0 2.08359,-0.19073 2.3167,-0.42384 0.32703,-0.32703 0.63083,-0.22939 1.32999,0.42744 1.08785,1.02198 0.82692,1.23491 -1.96812,1.60612 -2.97641,0.39529 -4.47042,1.14081 -5.96371,2.97593 -0.74488,0.9154 -2.81239,3.27149 -4.59448,5.23578 -5.78125,6.37232 -6.41692,7.28761 -7.09862,10.22126 -1.72631,7.42908 -3.0531,13.39122 -3.05516,13.72879 -0.004,0.59656 2.16353,2.65709 2.7946,2.65709 0.31312,0 5.38963,-1.56696 11.28115,-3.48214 l 10.71184,-3.48215 5.69153,-7.67857 c 3.13034,-4.22321 5.74967,-7.74616 5.82074,-7.82879 0.0711,-0.0826 0.51239,0.20976 0.98071,0.64972 l 0.85149,0.79993 -0.89377,0.95743 c -1.18681,1.27133 -6.42547,8.27479 -8.15825,10.90658 -1.33014,2.02027 -1.35384,2.10923 -0.69092,2.59397 0.37755,0.27607 2.94304,1.22821 5.70108,2.11586 7.98134,2.56871 8.05035,2.59945 8.05035,3.58484 0,0.47483 -0.12094,0.86332 -0.26876,0.86332 -0.14781,0 -3.40228,-0.97277 -7.23214,-2.16171 -3.82987,-1.18895 -7.61734,-2.25145 -8.4166,-2.36112 -1.13648,-0.15593 -2.84902,0.2339 -7.85715,1.78854 -10.53687,3.27091 -13.53777,4.35879 -13.65285,4.94941 -0.0583,0.2994 0.58452,1.3536 1.42857,2.34266 4.64388,5.44167 8.39099,14.37455 9.5955,22.87503 0.48459,3.4198 0.26884,11.9363 -0.38895,15.3532 -0.6133,3.1858 -0.8584,2.4831 -0.30713,-0.8806 0.71494,-4.3624 0.54414,-12.11051 -0.36271,-16.45315 -3.90265,-18.68883 -17.95433,-32.75442 -36.36818,-36.4042 -4.26481,-0.84532 -12.71726,-0.84532 -16.98206,0 -8.68515,1.72147 -16.50259,5.81596 -22.89762,11.99295 -3.97893,3.84327 -6.73128,7.50418 -9.08113,12.07886 -3.63162,7.07001 -5.17584,13.49151 -5.17581,21.52294 5e-5,12.292 4.38247,23.2486 12.86376,32.161 1.67287,1.7579 2.88329,3.1962 2.68982,3.1962 -0.19346,0 -2.42942,-2.0491 -4.96879,-4.5536 z m -8.10846,-12.2871 c -5.5532,-12.1857 -5.56095,-26.9731 -0.0205,-39.13076 2.86363,-6.28382 9.29343,-14.27061 14.49286,-18.00234 3.79131,-2.7211 3.73186,-2.66008 3.20731,-3.29212 -0.72427,-0.8727 -7.05508,-3.80555 -8.21461,-3.80555 -0.94719,0 -13.984,1.96218 -19.20037,2.88986 -1.78763,0.31791 -2.77469,0.80283 -5.36886,2.63763 -1.7482,1.23646 -3.37395,2.48357 -3.61279,2.77135 -0.3555,0.42834 0.12502,1.45584 2.64964,5.66577 4.78333,7.97643 4.53069,6.76011 3.10851,14.96612 -0.66363,3.82917 -1.38282,8.16749 -1.5982,9.6407 l -0.39161,2.67857 3.74662,7.70137 c 4.37386,8.9907 8.24601,16.2302 9.32452,17.4335 0.41858,0.467 1.24321,1.0576 1.83249,1.3125 0.94819,0.41 1.0834,0.3931 1.17547,-0.1472 0.0572,-0.3358 -0.45148,-1.8295 -1.13044,-3.3194 z"
       id="path6929"
       inkscape:connector-curvature="0" />
    <path
       style="opacity:1;fill:#000000;fill-opacity:1;fill-rule:nonzero;stroke:none;stroke-width:0.00009032;stroke-linejoin:round;stroke-miterlimit:4;stroke-dasharray:none;stroke-opacity:1"
       d="m 728.19469,-319.76255 c -0.58929,-0.18165 -3.64286,-0.56099 -6.78572,-0.84296 -10.69123,-0.9592 -10.45568,-0.92074 -10.67057,-1.74248 -0.10668,-0.40792 -0.13872,-0.79691 -0.0712,-0.86442 0.0675,-0.0675 2.35132,0.11662 5.07512,0.40918 8.77476,0.94247 9.64379,0.98366 10.06425,0.47703 0.50504,-0.60854 0.0963,-1.33071 -2.56153,-4.52552 -1.36626,-1.6423 -2.01696,-2.71221 -1.87481,-3.08264 0.32112,-0.83683 0.67068,-0.58186 2.97588,2.17064 1.15156,1.375 2.50556,2.69854 3.00889,2.9412 0.60183,0.29015 1.16547,1.08494 1.6463,2.32143 0.40214,1.03412 0.84432,2.16148 0.98263,2.50523 0.28314,0.70369 -0.10091,0.75377 -1.78922,0.23331 z"
       id="path6931"
       inkscape:connector-curvature="0" />
    <path
       style="opacity:1;fill:#000000;fill-opacity:1;fill-rule:nonzero;stroke:none;stroke-width:0.00009032;stroke-linejoin:round;stroke-miterlimit:4;stroke-dasharray:none;stroke-opacity:1"
       d="m 664.8585,-167.42481 c -0.3805,-0.8351 -0.25099,-1.1168 1.55287,-3.3776 2.23954,-2.8069 3.46286,-4.7557 3.31391,-5.2792 -0.11672,-0.4102 3.2822,-4.4884 3.53233,-4.2382 0.26203,0.262 -0.83372,3.6379 -1.8148,5.5912 -0.49435,0.9842 -1.76314,2.8736 -2.81953,4.1986 -1.05638,1.325 -2.14596,2.7708 -2.42127,3.2127 -0.63897,1.0258 -0.83428,1.0101 -1.34351,-0.1075 z"
       id="path6933"
       inkscape:connector-curvature="0" />
    <path
       style="opacity:1;fill:#000000;fill-opacity:1;fill-rule:nonzero;stroke:none;stroke-width:0.00009032;stroke-linejoin:round;stroke-miterlimit:4;stroke-dasharray:none;stroke-opacity:1"
       d="m 828.01362,-161.71481 c -10e-4,-1.1662 -0.16711,-6.8352 -0.36831,-12.5979 l -0.36582,-10.4776 -4.41491,-5.2367 c -6.74611,-8.0019 -8.6928,-9.701 -11.11436,-9.701 h -0.86224 l 1.15335,-1.6424 c 0.95377,-1.3583 1.17264,-1.5163 1.26481,-0.9133 0.071,0.4646 0.5506,0.8742 1.3217,1.1286 1.34712,0.4446 3.99152,3.073 9.27797,9.2218 1.9126,2.2246 3.70838,4.1333 3.99062,4.2416 0.73497,0.282 1.59833,-0.6341 7.32651,-7.7745 5.02001,-6.2576 5.12716,-6.363 5.79368,-5.7011 0.66675,0.6622 0.60541,0.7674 -3.3764,5.789 -2.23051,2.813 -5.00674,6.3535 -6.1694,7.8677 l -2.11392,2.753 0.31175,11.6418 0.31175,11.6417 -0.98214,0.9399 -0.98215,0.9398 -0.002,-2.1204 h 1e-5 z"
       id="path6935"
       inkscape:connector-curvature="0" />
    <path
       style="opacity:1;fill:#000000;fill-opacity:1;fill-rule:nonzero;stroke:none;stroke-width:0.00009032;stroke-linejoin:round;stroke-miterlimit:4;stroke-dasharray:none;stroke-opacity:1"
       d="m 816.56223,-141.68071 -0.5104,-1.3199 1.60714,-1.7344 c 0.88393,-0.954 2.73214,-3.2658 4.10714,-5.1373 1.375,-1.8715 2.64696,-3.3593 2.82658,-3.3061 0.17962,0.053 0.52822,0.4093 0.77466,0.7914 0.39994,0.6201 0.0579,1.194 -3.18372,5.3417 -1.99749,2.5559 -3.96462,5.1055 -4.3714,5.6658 l -0.73959,1.0187 z"
       id="path6937"
       inkscape:connector-curvature="0" />
    <path
       style="opacity:1;fill:#000000;fill-opacity:1;fill-rule:nonzero;stroke:none;stroke-width:0.00009032;stroke-linejoin:round;stroke-miterlimit:4;stroke-dasharray:none;stroke-opacity:1"
       d="m 856.32682,-173.27351 c -0.73063,-0.6097 -0.74783,-0.7046 -0.20809,-1.1488 0.3236,-0.2664 1.52805,-1.6742 2.67655,-3.1285 2.4617,-3.1172 3.68979,-4.0927 6.15128,-4.8857 1.00075,-0.3225 1.99103,-0.7997 2.20061,-1.0606 0.31175,-0.3881 0.69356,-0.3307 2.09943,0.3152 l 1.71837,0.7894 -2.45657,0.8467 c -5.19921,1.792 -5.68644,2.0915 -7.70031,4.7348 -1.04452,1.3709 -2.14019,2.8823 -2.43483,3.3586 -0.63785,1.0311 -0.98846,1.0617 -2.04644,0.1789 z"
       id="path6939"
       inkscape:connector-curvature="0" />
    <path
       style="opacity:1;fill:#4a4a4a;fill-opacity:1;fill-rule:nonzero;stroke:none;stroke-width:0.00009032;stroke-linejoin:round;stroke-miterlimit:4;stroke-dasharray:none;stroke-opacity:1"
       d="m 769.9804,-188.70561 c -8.82785,-1.1152 -16.85258,-5.1696 -23.10919,-11.6756 -6.56764,-6.8295 -10.07601,-14.3844 -11.05899,-23.8145 -0.78002,-7.4831 0.57689,-14.58748 4.16147,-21.78812 5.05781,-10.16006 13.88244,-17.35267 25.01927,-20.39223 3.22187,-0.87934 4.13379,-0.97132 9.6303,-0.97132 5.4965,0 6.40843,0.092 9.63029,0.97132 8.6442,2.35925 16.08169,7.32983 21.26969,14.21483 2.64396,3.5088 5.77311,9.82658 6.7772,13.68322 3.62935,13.9401 -0.28846,28.6649 -10.23643,38.4728 -3.82804,3.7741 -6.05715,5.3668 -10.65504,7.6128 -7.00195,3.4205 -14.00244,4.6249 -21.42857,3.6868 z"
       id="path6943"
       inkscape:connector-curvature="0" />
    <path
       style="opacity:0.26100003;fill:#5f5f5f;fill-opacity:0.75078861;fill-rule:nonzero;stroke:none;stroke-width:12.05996037;stroke-linejoin:round;stroke-miterlimit:4;stroke-dasharray:none;stroke-opacity:1;image-rendering:auto"
       d="m 600.79676,46.88982 c -11.60453,9.24793 -19.19565,24.79593 -19.19565,42.49023 v 282.89756 c 0,28.49581 19.6784,51.43635 44.12197,51.43635 h 297.82326 c 16.43375,0 30.70248,-10.3778 38.29648,-25.83406 -7.08384,5.64581 -15.66097,8.94614 -24.92631,8.94614 H 639.09324 c -24.44357,0 -44.12196,-22.94055 -44.12196,-51.43516 V 72.49212 c 0,-9.33725 2.12415,-18.06972 5.82548,-25.6023 z"
       id="rect5918-71"
       inkscape:connector-curvature="0" />
    <path
       inkscape:connector-curvature="0"
       id="path4768"
       d="M 110.79676,45.88982 C 99.19223,55.13775 91.60111,70.68575 91.60111,88.38005 v 282.89756 c 0,28.49581 19.6784,51.43635 44.12197,51.43635 h 297.82326 c 16.43375,0 30.70248,-10.3778 38.29648,-25.83406 -7.08384,5.64581 -15.66097,8.94614 -24.92631,8.94614 H 149.09324 c -24.44357,0 -44.12196,-22.94055 -44.12196,-51.43516 V 71.49212 c 0,-9.33725 2.12415,-18.06972 5.82548,-25.6023 z"
       style="opacity:0.26100003;fill:#5f5f5f;fill-opacity:0.75078861;fill-rule:nonzero;stroke:none;stroke-width:12.05996037;stroke-linejoin:round;stroke-miterlimit:4;stroke-dasharray:none;stroke-opacity:1;image-rendering:auto" />
    <path
       inkscape:connector-curvature="0"
       id="path4774"
       d="m 119.95394,542.37173 c -11.60453,9.24793 -19.19565,24.79593 -19.19565,42.49023 v 282.89756 c 0,28.49581 19.6784,51.43635 44.12197,51.43635 h 297.82326 c 16.43375,0 30.70248,-10.3778 38.29648,-25.83406 -7.08384,5.64581 -15.66097,8.94614 -24.92631,8.94614 H 158.25042 c -24.44357,0 -44.12196,-22.94055 -44.12196,-51.43516 V 567.97403 c 0,-9.33725 2.12415,-18.06972 5.82548,-25.6023 z"
       style="opacity:0.26100003;fill:#5f5f5f;fill-opacity:0.75078861;fill-rule:nonzero;stroke:none;stroke-width:12.05996037;stroke-linejoin:round;stroke-miterlimit:4;stroke-dasharray:none;stroke-opacity:1;image-rendering:auto" />
    <g
       id="g10850"
       style="fill:#500f52;fill-opacity:1">
      <path
         style="opacity:1;fill:#500f52;fill-opacity:1;stroke:none;stroke-width:0.00109029;stroke-linejoin:round;stroke-miterlimit:4;stroke-dasharray:none;stroke-opacity:1;image-rendering:auto"
         d="m 627,37.36181 h 297.99182 c 24.45742,0 44.14696,22.97072 44.14696,51.50517 v 283.27539 c 0,28.53445 -19.68954,51.50517 -44.14696,51.50517 H 627 c -24.45741,0 -44.14695,-22.97072 -44.14695,-51.50517 V 88.86698 c 0,-28.53445 19.68954,-51.50517 44.14695,-51.50517 z"
         id="rect5913-7"
         inkscape:connector-curvature="0" />
      <path
         inkscape:connector-curvature="0"
         id="path4766"
         d="m 137,36.36181 h 297.99182 c 24.45742,0 44.14696,22.97072 44.14696,51.50517 v 283.27539 c 0,28.53445 -19.68954,51.50517 -44.14696,51.50517 H 137 c -24.45741,0 -44.14695,-22.97072 -44.14695,-51.50517 V 87.86698 c 0,-28.53445 19.68954,-51.50517 44.14695,-51.50517 z"
         style="opacity:1;fill:#500f52;fill-opacity:1;stroke:none;stroke-width:0.00109029;stroke-linejoin:round;stroke-miterlimit:4;stroke-dasharray:none;stroke-opacity:1;image-rendering:auto" />
      <path
         inkscape:connector-curvature="0"
         id="path4772"
         d="M 146.15718,532.84372 H 444.149 c 24.45742,0 44.14696,22.97072 44.14696,51.50517 v 283.27539 c 0,28.53445 -19.68954,51.50517 -44.14696,51.50517 H 146.15718 c -24.45741,0 -44.14695,-22.97072 -44.14695,-51.50517 V 584.34889 c 0,-28.53445 19.68954,-51.50517 44.14695,-51.50517 z"
         style="opacity:1;fill:#500f52;fill-opacity:1;stroke:none;stroke-width:0.00109029;stroke-linejoin:round;stroke-miterlimit:4;stroke-dasharray:none;stroke-opacity:1;image-rendering:auto" />
      <path
         inkscape:connector-curvature="0"
         id="path4778"
         d="m 633.1572,529.84372 h 297.99182 c 24.45742,0 44.14696,22.97072 44.14696,51.50517 v 283.27539 c 0,28.53445 -19.68954,51.50517 -44.14696,51.50517 H 633.1572 c -24.45741,0 -44.14695,-22.97072 -44.14695,-51.50517 V 581.34889 c 0,-28.53445 19.68954,-51.50517 44.14695,-51.50517 z"
         style="opacity:1;fill:#500f52;fill-opacity:1;stroke:none;stroke-width:0.00109029;stroke-linejoin:round;stroke-miterlimit:4;stroke-dasharray:none;stroke-opacity:1;image-rendering:auto" />
    </g>
    <path
       inkscape:connector-curvature="0"
       id="path4780"
       d="m 606.95396,539.37173 c -11.60453,9.24793 -19.19565,24.79593 -19.19565,42.49023 v 282.89756 c 0,28.49581 19.6784,51.43635 44.12197,51.43635 h 297.82326 c 16.43375,0 30.70248,-10.3778 38.29648,-25.83406 -7.08384,5.64581 -15.66097,8.94614 -24.92631,8.94614 H 645.25044 c -24.44357,0 -44.12196,-22.94055 -44.12196,-51.43516 V 564.97403 c 0,-9.33725 2.12415,-18.06972 5.82548,-25.6023 z"
       style="opacity:0.26100003;fill:#5f5f5f;fill-opacity:0.75078861;fill-rule:nonzero;stroke:none;stroke-width:12.05996037;stroke-linejoin:round;stroke-miterlimit:4;stroke-dasharray:none;stroke-opacity:1;image-rendering:auto" />
    <path
       style="opacity:0.26100003;fill:#5f5f5f;fill-opacity:0.75078861;fill-rule:nonzero;stroke:none;stroke-width:5.00743246;stroke-linejoin:round;stroke-miterlimit:4;stroke-dasharray:none;stroke-opacity:1;image-rendering:auto"
       d="m 118.67822,-700.94751 c -4.70299,3.93402 -7.77946,10.54806 -7.77946,18.07512 v 120.34312 c 0,12.12196 7.9751,21.88075 17.88139,21.88075 h 120.69937 c 6.66013,0 12.44285,-4.41466 15.52048,-10.98967 -2.87088,2.40169 -6.34695,3.80563 -10.10193,3.80563 H 134.1987 c -9.90629,0 -17.88139,-9.75878 -17.88139,-21.88024 v -120.34363 c 0,-3.97202 0.86086,-7.68676 2.36091,-10.89108 z"
       id="path965"
       inkscape:connector-curvature="0" />
    <path
       inkscape:connector-curvature="0"
       id="path971"
       d="m 329.38057,-700.58502 c -4.70299,3.93402 -7.77946,10.54806 -7.77946,18.07512 v 120.34312 c 0,12.12196 7.9751,21.88075 17.88139,21.88075 h 120.69937 c 6.66013,0 12.44285,-4.41466 15.52048,-10.98967 -2.87088,2.40169 -6.34695,3.80563 -10.10193,3.80563 H 344.90105 c -9.90629,0 -17.88139,-9.75878 -17.88139,-21.88024 v -120.34363 c 0,-3.97202 0.86086,-7.68676 2.36091,-10.89108 z"
       style="opacity:0.26100003;fill:#5f5f5f;fill-opacity:0.75078861;fill-rule:nonzero;stroke:none;stroke-width:5.00743246;stroke-linejoin:round;stroke-miterlimit:4;stroke-dasharray:none;stroke-opacity:1;image-rendering:auto" />
    <path
       style="opacity:0.26100003;fill:#5f5f5f;fill-opacity:0.75078861;fill-rule:nonzero;stroke:none;stroke-width:5.00743246;stroke-linejoin:round;stroke-miterlimit:4;stroke-dasharray:none;stroke-opacity:1;image-rendering:auto"
       d="m 593.67822,-700.94751 c -4.70299,3.93402 -7.77946,10.54806 -7.77946,18.07512 v 120.34312 c 0,12.12196 7.9751,21.88075 17.88139,21.88075 h 120.69937 c 6.66013,0 12.44285,-4.41466 15.52048,-10.98967 -2.87088,2.40169 -6.34695,3.80563 -10.10193,3.80563 H 609.1987 c -9.90629,0 -17.88139,-9.75878 -17.88139,-21.88024 v -120.34363 c 0,-3.97202 0.86086,-7.68676 2.36091,-10.89108 z"
       id="path977"
       inkscape:connector-curvature="0" />
    <g
       id="g10844"
       style="fill:#2266f9;fill-opacity:1">
      <path
         style="opacity:1;fill:#2266f9;fill-opacity:1;stroke:none;stroke-width:0.0004527;stroke-linejoin:round;stroke-miterlimit:4;stroke-dasharray:none;stroke-opacity:1;image-rendering:auto"
         d="m 129.29765,-705.00068 h 120.76768 c 9.9119,0 17.89152,9.77163 17.89152,21.91003 v 120.50385 c 0,12.1384 -7.97962,21.91002 -17.89152,21.91002 H 129.29765 c -9.9119,0 -17.89151,-9.77162 -17.89151,-21.91002 v -120.50385 c 0,-12.1384 7.97961,-21.91003 17.89151,-21.91003 z"
         id="path963"
         inkscape:connector-curvature="0" />
      <path
         inkscape:connector-curvature="0"
         id="path969"
         d="m 340,-704.63819 h 120.76768 c 9.9119,0 17.89152,9.77163 17.89152,21.91003 v 120.50385 c 0,12.1384 -7.97962,21.91002 -17.89152,21.91002 H 340 c -9.9119,0 -17.89151,-9.77162 -17.89151,-21.91002 v -120.50385 c 0,-12.1384 7.97961,-21.91003 17.89151,-21.91003 z"
         style="opacity:1;fill:#2266f9;fill-opacity:1;stroke:none;stroke-width:0.0004527;stroke-linejoin:round;stroke-miterlimit:4;stroke-dasharray:none;stroke-opacity:1;image-rendering:auto" />
      <path
         style="opacity:1;fill:#2266f9;fill-opacity:1;stroke:none;stroke-width:0.0004527;stroke-linejoin:round;stroke-miterlimit:4;stroke-dasharray:none;stroke-opacity:1;image-rendering:auto"
         d="m 604.29765,-705.00068 h 120.76768 c 9.9119,0 17.89152,9.77163 17.89152,21.91003 v 120.50385 c 0,12.1384 -7.97962,21.91002 -17.89152,21.91002 H 604.29765 c -9.9119,0 -17.89151,-9.77162 -17.89151,-21.91002 v -120.50385 c 0,-12.1384 7.97961,-21.91003 17.89151,-21.91003 z"
         id="path975"
         inkscape:connector-curvature="0" />
      <path
         inkscape:connector-curvature="0"
         id="path981"
         d="m 824.29761,-703.00068 h 120.76768 c 9.9119,0 17.89152,9.77163 17.89152,21.91003 v 120.50385 c 0,12.1384 -7.97962,21.91002 -17.89152,21.91002 H 824.29761 c -9.9119,0 -17.89151,-9.77162 -17.89151,-21.91002 v -120.50385 c 0,-12.1384 7.97961,-21.91003 17.89151,-21.91003 z"
         style="opacity:1;fill:#2266f9;fill-opacity:1;stroke:none;stroke-width:0.0004527;stroke-linejoin:round;stroke-miterlimit:4;stroke-dasharray:none;stroke-opacity:1;image-rendering:auto" />
    </g>
    <path
       inkscape:connector-curvature="0"
       id="path983"
       d="m 813.67818,-698.94751 c -4.70299,3.93402 -7.77946,10.54806 -7.77946,18.07512 v 120.34312 c 0,12.12196 7.9751,21.88075 17.88139,21.88075 h 120.69937 c 6.66013,0 12.44285,-4.41466 15.52048,-10.98967 -2.87088,2.40169 -6.34695,3.80563 -10.10193,3.80563 H 829.19866 c -9.90629,0 -17.88139,-9.75878 -17.88139,-21.88024 v -120.34363 c 0,-3.97202 0.86086,-7.68676 2.36091,-10.89108 z"
       style="opacity:0.26100003;fill:#5f5f5f;fill-opacity:0.75078861;fill-rule:nonzero;stroke:none;stroke-width:5.00743246;stroke-linejoin:round;stroke-miterlimit:4;stroke-dasharray:none;stroke-opacity:1;image-rendering:auto" />
  </g>
</svg>
