<?xml version="1.0" encoding="UTF-8" standalone="no"?>
<!-- Created with Inkscape (http://www.inkscape.org/) -->

<svg
   xmlns:dc="http://purl.org/dc/elements/1.1/"
   xmlns:cc="http://creativecommons.org/ns#"
   xmlns:rdf="http://www.w3.org/1999/02/22-rdf-syntax-ns#"
   xmlns:svg="http://www.w3.org/2000/svg"
   xmlns="http://www.w3.org/2000/svg"
   xmlns:xlink="http://www.w3.org/1999/xlink"
   xmlns:sodipodi="http://sodipodi.sourceforge.net/DTD/sodipodi-0.dtd"
   xmlns:inkscape="http://www.inkscape.org/namespaces/inkscape"
   width="1080"
   height="1920"
   viewBox="0 0 1080 1920"
   id="svg4167"
   version="1.1"
   inkscape:version="0.91 r13725"
   sodipodi:docname="hourglass.svg">
  <defs
     id="defs4169">
    <inkscape:path-effect
       effect="spiro"
       id="path-effect4757"
       is_visible="true" />
    <inkscape:path-effect
       effect="spiro"
       id="path-effect4753"
       is_visible="true" />
    <inkscape:path-effect
       effect="spiro"
       id="path-effect4749"
       is_visible="true" />
  </defs>
  <sodipodi:namedview
     id="base"
     pagecolor="#ffffff"
     bordercolor="#666666"
     borderopacity="1.0"
     inkscape:pageopacity="0.0"
     inkscape:pageshadow="2"
     inkscape:zoom="0.7"
     inkscape:cx="754.42857"
     inkscape:cy="1408.0193"
     inkscape:document-units="px"
     inkscape:current-layer="layer1"
     showgrid="false"
     units="px"
     inkscape:window-width="1920"
     inkscape:window-height="1017"
     inkscape:window-x="-8"
     inkscape:window-y="-3"
     inkscape:window-maximized="1" />
  <metadata
     id="metadata4172">
    <rdf:RDF>
      <cc:Work
         rdf:about="">
        <dc:format>image/svg+xml</dc:format>
        <dc:type
           rdf:resource="http://purl.org/dc/dcmitype/StillImage" />
        <dc:title></dc:title>
      </cc:Work>
    </rdf:RDF>
  </metadata>
  <g
     inkscape:groupmode="layer"
     id="layer2"
     inkscape:label="Layer 2" />
  <g
     inkscape:label="Layer 1"
     inkscape:groupmode="layer"
     id="layer1"
     transform="translate(0,867.63784)">
    <g
       id="g4857">
      <g
         transform="matrix(1,0,0,-1,25.714285,-485.32202)"
         id="g4777">
        <path
           style="fill:none;fill-rule:evenodd;stroke:#000000;stroke-width:1px;stroke-linecap:butt;stroke-linejoin:miter;stroke-opacity:1"
           d="m 257.85714,-516.92356 c -28.29496,287.13098 210.60957,219.38016 204.719,307.11207"
           id="path4773"
           inkscape:connector-curvature="0"
           sodipodi:nodetypes="cc" />
        <path
           sodipodi:nodetypes="cc"
           inkscape:connector-curvature="0"
           id="path4775"
           d="m 747.4962,-515.49499 c 28.29496,287.13098 -210.60957,219.38016 -204.719,307.11207"
           style="fill:none;fill-rule:evenodd;stroke:#000000;stroke-width:1px;stroke-linecap:butt;stroke-linejoin:miter;stroke-opacity:1" />
      </g>
      <path
         style="fill:none;fill-rule:evenodd;stroke:#000000;stroke-width:1px;stroke-linecap:butt;stroke-linejoin:miter;stroke-opacity:1"
         d="m 283.57143,-580.49498 c -28.29497,287.13098 210.60957,219.38016 204.719,307.11207"
         id="path4783"
         inkscape:connector-curvature="0"
         sodipodi:nodetypes="cc" />
      <path
         sodipodi:nodetypes="cc"
         inkscape:connector-curvature="0"
         id="path4785"
         d="m 770.35334,-581.92355 c 28.29496,287.13098 -207.75243,222.2373 -201.86186,309.96921"
         style="fill:none;fill-rule:evenodd;stroke:#000000;stroke-width:1px;stroke-linecap:butt;stroke-linejoin:miter;stroke-opacity:1" />
    </g>
    <g
       transform="translate(679.73114,563.66512)"
       id="g4734">
      <path
         style="opacity:0.26100003;fill:#00aad4;fill-opacity:0.75078861;fill-rule:nonzero;stroke:none;stroke-width:0.00009032;stroke-linejoin:round;stroke-miterlimit:4;stroke-dasharray:none;stroke-opacity:1"
         d="m -474.10798,-558.7687 a 354.28571,88.571426 0 0 0 -38.03515,39.70313 354.28571,88.571426 0 0 0 354.28711,88.57031 354.28571,88.571426 0 0 0 347.67773,-71.72656 354.28571,88.571426 0 0 1 -316.25,48.86914 354.28571,88.571426 0 0 1 -354.28516,-88.57032 354.28571,88.571426 0 0 1 6.60547,-16.8457 z"
         id="path4736"
         inkscape:connector-curvature="0" />
      <ellipse
         style="opacity:0.26100003;fill:#00aad4;fill-opacity:0.75078861;fill-rule:nonzero;stroke:none;stroke-width:0.00009032;stroke-linejoin:round;stroke-miterlimit:4;stroke-dasharray:none;stroke-opacity:1"
         id="ellipse4738"
         cx="-157.85742"
         cy="-519.06641"
         rx="354.28571"
         ry="88.571426" />
    </g>
    <ellipse
       style="opacity:0.26100003;fill:#00aad4;fill-opacity:0.75078861;fill-rule:nonzero;stroke:none;stroke-width:0.00009032;stroke-linejoin:round;stroke-miterlimit:4;stroke-dasharray:none;stroke-opacity:1"
       id="ellipse4803"
       cx="-524.73083"
       cy="-645.40131"
       rx="354.28571"
       ry="88.571426"
       transform="scale(-1,1)" />
    <ellipse
       style="opacity:0.26100003;fill:#7171ff;fill-opacity:1;fill-rule:nonzero;stroke:none;stroke-width:0.00009032;stroke-linejoin:round;stroke-miterlimit:4;stroke-dasharray:none;stroke-opacity:1"
       id="path4811"
       cx="527.14282"
       cy="33.790733"
       rx="245.71428"
       ry="41.42857" />
    <path
       style="opacity:0.26100003;fill:#000080;fill-opacity:1;fill-rule:nonzero;stroke:none;stroke-width:0.00009032;stroke-linejoin:round;stroke-miterlimit:4;stroke-dasharray:none;stroke-opacity:1"
       id="path4872"
       sodipodi:type="arc"
       sodipodi:cx="-543.32025"
       sodipodi:cy="-430.65097"
       sodipodi:rx="11.428568"
       sodipodi:ry="53.57143"
       sodipodi:start="0.89447077"
       sodipodi:end="4.3503091"
       d="m -536.16675,-388.87179 a 11.428568,53.57143 0 0 1 -12.38653,5.84629 11.428568,53.57143 0 0 1 -6.17713,-50.66511 11.428568,53.57143 0 0 1 7.36193,-47.05833 l 4.04823,50.09797 z"
       transform="matrix(-0.60479237,0.79638319,-0.79638319,-0.60479237,0,0)" />
    <path
       style="opacity:0.26100003;fill:#000080;fill-opacity:1;fill-rule:nonzero;stroke:none;stroke-width:0.00009032;stroke-linejoin:round;stroke-miterlimit:4;stroke-dasharray:none;stroke-opacity:1"
       id="path4872-2"
       sodipodi:type="arc"
       sodipodi:cx="128.35284"
       sodipodi:cy="388.64572"
       sodipodi:rx="11.428568"
       sodipodi:ry="53.57143"
       sodipodi:start="0.89447077"
       sodipodi:end="4.3503091"
       d="m 135.50635,430.4249 a 11.428568,53.57143 0 0 1 -12.38654,5.84629 11.428568,53.57143 0 0 1 -6.17712,-50.6651 11.428568,53.57143 0 0 1 7.36193,-47.05834 l 4.04822,50.09797 z"
       transform="matrix(0.66306113,0.74856525,0.74856525,-0.66306113,0,0)" />
    <path
       style="opacity:0.26100003;fill:#000080;fill-opacity:1;fill-rule:nonzero;stroke:none;stroke-width:0.00009032;stroke-linejoin:round;stroke-miterlimit:4;stroke-dasharray:none;stroke-opacity:1"
       id="path4872-3"
       sodipodi:type="arc"
       sodipodi:cx="36.973339"
       sodipodi:cy="735.39624"
       sodipodi:rx="6.8513484"
       sodipodi:ry="30.767666"
       sodipodi:start="0.89447077"
       sodipodi:end="4.3503091"
       d="m 41.261815,759.39126 a 6.8513484,30.767666 0 0 1 -7.425641,3.3577 6.8513484,30.767666 0 0 1 -3.703146,-29.09847 6.8513484,30.767666 0 0 1 4.413426,-27.02701 l 2.426885,28.77276 z"
       transform="matrix(-0.41658719,-0.90909577,0.90052851,-0.43479696,0,0)" />
    <path
       style="opacity:0.26100003;fill:#000080;fill-opacity:1;fill-rule:nonzero;stroke:none;stroke-width:0.00009032;stroke-linejoin:round;stroke-miterlimit:4;stroke-dasharray:none;stroke-opacity:1"
       id="path4872-3-2"
       sodipodi:type="arc"
       sodipodi:cx="-669.69312"
       sodipodi:cy="794.99658"
       sodipodi:rx="9.3584728"
       sodipodi:ry="24.40959"
       sodipodi:start="0.89447077"
       sodipodi:end="4.3503091"
       d="m -663.83535,814.03308 a 9.3584728,24.40959 0 0 1 -10.14292,2.66384 9.3584728,24.40959 0 0 1 -5.05824,-23.08533 9.3584728,24.40959 0 0 1 6.02844,-21.44193 l 3.31495,22.82692 z"
       transform="matrix(-0.63936835,-0.76890058,0.08413,-0.99645479,0,0)" />
    <path
       sodipodi:type="star"
       style="opacity:0.26100003;fill:#9955ff;fill-opacity:1;fill-rule:nonzero;stroke:none;stroke-width:0.00009032;stroke-linejoin:round;stroke-miterlimit:4;stroke-dasharray:none;stroke-opacity:1"
       id="path4973"
       sodipodi:sides="5"
       sodipodi:cx="428.57143"
       sodipodi:cy="-484.78067"
       sodipodi:r1="27.47912"
       sodipodi:r2="13.73956"
       sodipodi:arg1="1.0838971"
       sodipodi:arg2="1.7122156"
       inkscape:flatsided="false"
       inkscape:rounded="0"
       inkscape:randomized="0"
       d="m 441.42858,-460.49496 -14.79371,-10.68331 -17.18744,6.13017 5.58893,-17.37098 -11.14135,-14.45191 18.24786,-0.0525 10.30171,-15.06193 5.68887,17.33851 17.50815,5.14311 -14.73194,10.76833 z"
       inkscape:transform-center-x="-1.1968653"
       inkscape:transform-center-y="-1.4595401"
       onload="&lt;animateMotion&gt;" />
    <use
       id="use9131"
       xlink:href="#path4973"
       x="0"
       y="0"
       width="100%"
       height="100%"
       transform="matrix(0.99881451,-0.04867829,0.04867829,0.99881451,216.88199,511.88274)"
       style="fill:#6732b7;fill-opacity:1" />
    <use
       id="use9133"
       xlink:href="#path4973"
       x="0"
       y="0"
       width="100%"
       height="100%"
       transform="matrix(0.93313513,0.35952584,-0.35952584,0.93313513,-59.483523,316.8997)"
       style="fill:#6732b7;fill-opacity:1" />
    <use
       id="use9135"
       xlink:href="#path4973"
       x="0"
       y="0"
       width="100%"
       height="100%"
       transform="matrix(0.99958632,0.02876096,-0.02876096,0.99958632,-5.27879,475.56552)"
       style="fill:#6732b7;fill-opacity:1" />
    <use
       id="use9137"
       xlink:href="#path4973"
       x="0"
       y="0"
       width="100%"
       height="100%"
       transform="matrix(0.98110657,-0.19346807,0.19346807,0.98110657,198.4036,224.37359)" />
    <use
       id="use9139"
       xlink:href="#path4973"
       x="0"
       y="0"
       width="100%"
       height="100%"
       transform="matrix(0.98792511,-0.15493216,0.15493216,0.98792511,68.667623,145.87643)" />
    <use
       id="use9141"
       xlink:href="#path4973"
       x="0"
       y="0"
       width="100%"
       height="100%"
       transform="matrix(0.97710538,0.21275593,-0.21275593,0.97710538,-40.025084,419.2279)"
       style="fill:#6732b7;fill-opacity:1" />
    <use
       id="use9143"
       xlink:href="#path4973"
       x="0"
       y="0"
       width="100%"
       height="100%"
       transform="matrix(0.95226604,-0.30526939,0.30526939,0.95226604,142.36394,121.16326)" />
    <use
       id="use9145"
       xlink:href="#path4973"
       x="0"
       y="0"
       width="100%"
       height="100%"
       transform="matrix(0.97188568,-0.23545324,0.23545324,0.97188568,138.97546,185.27344)" />
    <use
       id="use9147"
       xlink:href="#path4973"
       x="0"
       y="0"
       width="100%"
       height="100%"
       transform="matrix(0.96659904,0.2562934,-0.2562934,0.96659904,-119.05846,-124.88786)" />
    <use
       id="use9149"
       xlink:href="#path4973"
       x="0"
       y="0"
       width="100%"
       height="100%"
       transform="matrix(0.98983012,0.14225446,-0.14225446,0.98983012,-16.552799,-27.505543)" />
    <use
       id="use9151"
       xlink:href="#path4973"
       x="0"
       y="0"
       width="100%"
       height="100%"
       transform="matrix(0.99927484,-0.03807624,0.03807624,0.99927484,78.430181,102.12563)" />
    <use
       id="use9153"
       xlink:href="#path4973"
       x="0"
       y="0"
       width="100%"
       height="100%"
       transform="matrix(0.98465621,-0.17450543,0.17450543,0.98465621,90.333394,75.537359)" />
    <use
       id="use9155"
       xlink:href="#path4973"
       x="0"
       y="0"
       width="100%"
       height="100%"
       transform="matrix(0.96272314,0.27048872,-0.27048872,0.96272314,-44.591706,-40.809617)" />
    <use
       id="use9157"
       xlink:href="#path4973"
       x="0"
       y="0"
       width="100%"
       height="100%"
       transform="matrix(0.99969319,-0.0247695,0.0247695,0.99969319,74.822821,32.400521)" />
    <use
       id="use9159"
       xlink:href="#path4973"
       x="0"
       y="0"
       width="100%"
       height="100%"
       transform="matrix(0.99753525,0.07016708,-0.07016708,0.99753525,36.191974,0.64427456)" />
    <use
       id="use9161"
       xlink:href="#path4973"
       x="0"
       y="0"
       width="100%"
       height="100%"
       transform="matrix(0.99967724,0.02540497,-0.02540497,0.99967724,90.310639,-14.027308)" />
    <use
       id="use9163"
       xlink:href="#path4973"
       x="0"
       y="0"
       width="100%"
       height="100%"
       transform="matrix(0.98520977,-0.17135258,0.17135258,0.98520977,202.77599,71.219349)" />
    <use
       id="use9165"
       xlink:href="#path4973"
       x="0"
       y="0"
       width="100%"
       height="100%"
       transform="matrix(0.99403092,0.1090987,-0.1090987,0.99403092,43.418512,12.954208)" />
    <use
       id="use9167"
       xlink:href="#path4973"
       x="0"
       y="0"
       width="100%"
       height="100%"
       transform="matrix(0.93345429,-0.35869638,0.35869638,0.93345429,330.32023,166.89135)" />
    <use
       id="use9169"
       xlink:href="#path4973"
       x="0"
       y="0"
       width="100%"
       height="100%"
       transform="matrix(0.99664326,-0.08186703,0.08186703,0.99664326,158.8539,88.943844)" />
    <use
       id="use9171"
       xlink:href="#path4973"
       x="0"
       y="0"
       width="100%"
       height="100%"
       transform="matrix(0.96311716,0.2690824,-0.2690824,0.96311716,2.5738386,-128.95747)" />
    <use
       id="use9173"
       xlink:href="#path4973"
       x="0"
       y="0"
       width="100%"
       height="100%"
       transform="matrix(0.95053413,-0.31062013,0.31062013,0.95053413,348.09213,156.51714)" />
    <use
       id="use9175"
       xlink:href="#path4973"
       x="0"
       y="0"
       width="100%"
       height="100%"
       transform="matrix(0.99800536,0.06312919,-0.06312919,0.99800536,98.950389,-24.821557)" />
    <use
       id="use9177"
       xlink:href="#path4973"
       x="0"
       y="0"
       width="100%"
       height="100%"
       transform="matrix(0.99029919,-0.13895149,0.13895149,0.99029919,263.68141,92.164244)" />
    <use
       id="use9179"
       xlink:href="#path4973"
       x="0"
       y="0"
       width="100%"
       height="100%"
       transform="matrix(0.98161875,-0.19085239,0.19085239,0.98161875,268.43587,147.95679)" />
    <use
       id="use9181"
       xlink:href="#path4973"
       x="0"
       y="0"
       width="100%"
       height="100%"
       transform="matrix(0.99941679,0.03414794,-0.03414794,0.99941679,186.73354,63.968368)" />
    <use
       id="use9183"
       xlink:href="#path4973"
       x="0"
       y="0"
       width="100%"
       height="100%"
       transform="matrix(0.99994573,-0.01041858,0.01041858,0.99994573,202.63825,66.657447)" />
    <use
       id="use9185"
       xlink:href="#path4973"
       x="0"
       y="0"
       width="100%"
       height="100%"
       transform="matrix(0.96039865,-0.27862957,0.27862957,0.96039865,343.12152,193.91283)" />
    <use
       id="use9187"
       xlink:href="#path4973"
       x="0"
       y="0"
       width="100%"
       height="100%"
       transform="matrix(0.99366757,-0.11235999,0.11235999,0.99366757,142.54249,160.13094)" />
    <use
       id="use9189"
       xlink:href="#path4973"
       x="0"
       y="0"
       width="100%"
       height="100%"
       transform="matrix(0.9661369,-0.25803002,0.25803002,0.9661369,363.50404,174.36885)" />
    <use
       id="use9191"
       xlink:href="#path4973"
       x="0"
       y="0"
       width="100%"
       height="100%"
       transform="matrix(0.98345018,0.18117874,-0.18117874,0.98345018,152.9945,-69.331821)" />
    <use
       id="use9193"
       xlink:href="#path4973"
       x="0"
       y="0"
       width="100%"
       height="100%"
       transform="matrix(0.96923987,0.24611799,-0.24611799,0.96923987,80.555644,-71.428673)" />
    <use
       id="use9195"
       xlink:href="#path4973"
       x="0"
       y="0"
       width="100%"
       height="100%"
       transform="matrix(0.98998385,-0.14118064,0.14118064,0.98998385,127.96768,178.08755)" />
    <use
       id="use9197"
       xlink:href="#path4973"
       x="0"
       y="0"
       width="100%"
       height="100%"
       transform="matrix(0.9963453,-0.08541694,0.08541694,0.9963453,205.59761,553.80756)"
       style="fill:#6732b7;fill-opacity:1" />
    <use
       id="use9199"
       xlink:href="#path4973"
       x="0"
       y="0"
       width="100%"
       height="100%"
       transform="matrix(0.97902225,-0.20375334,0.20375334,0.97902225,206.80147,608.17291)"
       style="fill:#6732b7;fill-opacity:1" />
    <use
       id="use9201"
       xlink:href="#path4973"
       x="0"
       y="0"
       width="100%"
       height="100%"
       transform="matrix(0.98874399,0.14961723,-0.14961723,0.98874399,-51.222996,457.0305)"
       style="fill:#6732b7;fill-opacity:1" />
    <use
       id="use9203"
       xlink:href="#path4973"
       x="0"
       y="0"
       width="100%"
       height="100%"
       transform="matrix(0.98600449,0.16671875,-0.16671875,0.98600449,133.28691,441.7773)"
       style="fill:#6732b7;fill-opacity:1" />
    <use
       id="use9207"
       xlink:href="#path4973"
       x="0"
       y="0"
       width="100%"
       height="100%"
       transform="matrix(0.99283195,0.11951868,-0.11951868,0.99283195,223.27159,446.39245)"
       style="fill:#6732b7;fill-opacity:1" />
    <use
       id="use9211"
       xlink:href="#path4973"
       x="0"
       y="0"
       width="100%"
       height="100%"
       transform="matrix(0.98133579,0.19230204,-0.19230204,0.98133579,-118.15277,416.21899)"
       style="fill:#6732b7;fill-opacity:1" />
    <use
       id="use9213"
       xlink:href="#path4973"
       x="0"
       y="0"
       width="100%"
       height="100%"
       transform="matrix(0.98642329,0.16422268,-0.16422268,0.98642329,139.32576,25.720007)" />
    <use
       id="use9215"
       xlink:href="#path4973"
       x="0"
       y="0"
       width="100%"
       height="100%"
       transform="matrix(0.97411721,-0.22604349,0.22604349,0.97411721,247.52659,366.92619)" />
    <use
       id="use9219"
       xlink:href="#path4973"
       x="0"
       y="0"
       width="100%"
       height="100%"
       transform="matrix(0.99486644,0.1011967,-0.1011967,0.99486644,209.78162,50.662423)" />
    <use
       id="use9221"
       xlink:href="#path4973"
       x="0"
       y="0"
       width="100%"
       height="100%"
       transform="matrix(0.9894766,0.14469297,-0.14469297,0.9894766,170.64076,-18.403691)" />
    <use
       id="use9225"
       xlink:href="#path4973"
       x="0"
       y="0"
       width="100%"
       height="100%"
       transform="matrix(0.93666541,-0.3502255,0.3502255,0.93666541,437.37693,626.77475)"
       style="fill:#6732b7;fill-opacity:1" />
    <use
       id="use9229"
       xlink:href="#path4973"
       x="0"
       y="0"
       width="100%"
       height="100%"
       transform="matrix(0.96732206,0.25355085,-0.25355085,0.96732206,-185.16178,-56.809587)" />
    <use
       id="use9233"
       xlink:href="#path4973"
       x="0"
       y="0"
       width="100%"
       height="100%"
       transform="matrix(0.99105963,-0.13341967,0.13341967,0.99105963,123.71376,377.79033)" />
    <use
       id="use9237"
       xlink:href="#path4973"
       x="0"
       y="0"
       width="100%"
       height="100%"
       transform="matrix(0.98141259,0.19190969,-0.19190969,0.98141259,-127.04049,1.2875715)" />
    <use
       id="use9243"
       xlink:href="#path4973"
       x="0"
       y="0"
       width="100%"
       height="100%"
       transform="matrix(0.95133311,0.30816443,-0.30816443,0.95133311,-100.81851,-25.117448)" />
    <use
       id="use9245"
       xlink:href="#path4973"
       x="0"
       y="0"
       width="100%"
       height="100%"
       transform="matrix(0.99968567,-0.02507121,0.02507121,0.99968567,129.16827,195.99211)" />
    <use
       id="use9247"
       xlink:href="#path4973"
       x="0"
       y="0"
       width="100%"
       height="100%"
       transform="matrix(0.99180109,0.12779125,-0.12779125,0.99180109,-64.038678,437.43925)"
       style="fill:#6732b7;fill-opacity:1" />
    <use
       id="use9249"
       xlink:href="#path4973"
       x="0"
       y="0"
       width="100%"
       height="100%"
       transform="matrix(0.99131932,-0.13147624,0.13147624,0.99131932,58.042277,560.71342)"
       style="fill:#6732b7;fill-opacity:1" />
    <use
       id="use9251"
       xlink:href="#path4973"
       x="0"
       y="0"
       width="100%"
       height="100%"
       transform="matrix(0.95097942,-0.30925418,0.30925418,0.95097942,270.63123,259.73486)" />
    <use
       id="use9253"
       xlink:href="#path4973"
       x="0"
       y="0"
       width="100%"
       height="100%"
       transform="matrix(0.96742963,-0.25314012,0.25314012,0.96742963,199.12809,184.17029)" />
    <use
       id="use9255"
       xlink:href="#path4973"
       x="0"
       y="0"
       width="100%"
       height="100%"
       transform="matrix(0.96307111,-0.26924716,0.26924716,0.96307111,94.81475,596.51296)"
       style="fill:#6732b7;fill-opacity:1" />
    <use
       id="use9257"
       xlink:href="#path4973"
       x="0"
       y="0"
       width="100%"
       height="100%"
       transform="matrix(0.93841253,0.34551689,-0.34551689,0.93841253,-20.177629,-30.608544)" />
    <use
       id="use9259"
       xlink:href="#path4973"
       x="0"
       y="0"
       width="100%"
       height="100%"
       transform="matrix(0.95225303,0.30530995,-0.30530995,0.95225303,-209.09055,340.93041)"
       style="fill:#6732b7;fill-opacity:1" />
    <use
       id="use9261"
       xlink:href="#path4973"
       x="0"
       y="0"
       width="100%"
       height="100%"
       transform="matrix(0.94113667,-0.33802629,0.33802629,0.94113667,183.90123,226.53648)" />
    <use
       id="use9263"
       xlink:href="#path4973"
       x="0"
       y="0"
       width="100%"
       height="100%"
       transform="matrix(0.99829225,0.05841736,-0.05841736,0.99829225,10.600424,54.691303)" />
    <use
       id="use9265"
       xlink:href="#path4973"
       x="0"
       y="0"
       width="100%"
       height="100%"
       transform="matrix(0.99904601,0.04366992,-0.04366992,0.99904601,60.832561,130.20371)" />
    <use
       id="use9267"
       xlink:href="#path4973"
       x="0"
       y="0"
       width="100%"
       height="100%"
       transform="matrix(0.98965979,0.14343462,-0.14343462,0.98965979,-61.325368,36.189864)" />
    <use
       id="use9269"
       xlink:href="#path4973"
       x="0"
       y="0"
       width="100%"
       height="100%"
       transform="matrix(0.93955063,0.34241001,-0.34241001,0.93955063,-221.24081,-137.69124)" />
    <use
       id="use9271"
       xlink:href="#path4973"
       x="0"
       y="0"
       width="100%"
       height="100%"
       transform="matrix(0.96199666,-0.27306123,0.27306123,0.96199666,385.73948,585.19785)"
       style="fill:#6732b7;fill-opacity:1" />
    <use
       id="use9273"
       xlink:href="#path4973"
       x="0"
       y="0"
       width="100%"
       height="100%"
       transform="matrix(0.98568125,0.16861929,-0.16861929,0.98568125,177.62643,-50.068631)" />
    <use
       id="use9275"
       xlink:href="#path4973"
       x="0"
       y="0"
       width="100%"
       height="100%"
       transform="matrix(0.99986547,-0.01640265,0.01640265,0.99986547,-10.463062,107.58965)" />
    <use
       id="use9277"
       xlink:href="#path4973"
       x="0"
       y="0"
       width="100%"
       height="100%"
       transform="matrix(0.99588274,-0.09065078,0.09065078,0.99588274,14.08824,91.912827)" />
    <use
       id="use9279"
       xlink:href="#path4973"
       x="0"
       y="0"
       width="100%"
       height="100%"
       transform="matrix(0.97655192,-0.21528201,0.21528201,0.97655192,190.53054,225.59772)" />
    <use
       id="use9281"
       xlink:href="#path4973"
       x="0"
       y="0"
       width="100%"
       height="100%"
       transform="matrix(0.98242716,-0.1866464,0.1866464,0.98242716,79.059721,97.224081)" />
    <use
       id="use9283"
       xlink:href="#path4973"
       x="0"
       y="0"
       width="100%"
       height="100%"
       transform="matrix(0.96970494,0.24427922,-0.24427922,0.96970494,-165.2971,-70.356591)" />
    <use
       id="use9285"
       xlink:href="#path4973"
       x="0"
       y="0"
       width="100%"
       height="100%"
       transform="matrix(0.9989539,0.04572864,-0.04572864,0.9989539,-27.759233,-0.59501917)" />
    <use
       id="use9287"
       xlink:href="#path4973"
       x="0"
       y="0"
       width="100%"
       height="100%"
       transform="matrix(0.99856941,0.05347094,-0.05347094,0.99856941,-57.938262,8.1758351)" />
    <use
       id="use9289"
       xlink:href="#path4973"
       x="0"
       y="0"
       width="100%"
       height="100%"
       transform="matrix(0.96249817,0.27128816,-0.27128816,0.96249817,-90.078476,-126.63181)" />
    <use
       id="use9291"
       xlink:href="#path4973"
       x="0"
       y="0"
       width="100%"
       height="100%"
       transform="matrix(0.98632107,0.16483553,-0.16483553,0.98632107,22.723882,-29.415985)" />
    <use
       id="use9293"
       xlink:href="#path4973"
       x="0"
       y="0"
       width="100%"
       height="100%"
       transform="matrix(0.99942079,0.03403064,-0.03403064,0.99942079,50.154087,1.0263558)" />
    <use
       id="use9295"
       xlink:href="#path4973"
       x="0"
       y="0"
       width="100%"
       height="100%"
       transform="matrix(0.97834225,-0.20699382,0.20699382,0.97834225,185.70611,94.084393)" />
    <use
       id="use9297"
       xlink:href="#path4973"
       x="0"
       y="0"
       width="100%"
       height="100%"
       transform="matrix(0.9603998,0.27862559,-0.27862559,0.9603998,21.913412,-72.652694)" />
    <use
       id="use9299"
       xlink:href="#path4973"
       x="0"
       y="0"
       width="100%"
       height="100%"
       transform="matrix(0.99658312,-0.08259595,0.08259595,0.99658312,173.05545,96.247604)" />
    <use
       id="use9301"
       xlink:href="#path4973"
       x="0"
       y="0"
       width="100%"
       height="100%"
       transform="matrix(0.97626605,-0.21657468,0.21657468,0.97626605,233.38764,172.32861)" />
    <use
       id="use9303"
       xlink:href="#path4973"
       x="0"
       y="0"
       width="100%"
       height="100%"
       transform="matrix(0.99855817,0.05368028,-0.05368028,0.99855817,83.562726,63.003569)" />
    <use
       id="use9305"
       xlink:href="#path4973"
       x="0"
       y="0"
       width="100%"
       height="100%"
       transform="matrix(0.95466406,-0.29768528,0.29768528,0.95466406,294.31067,153.03996)" />
    <use
       id="use9307"
       xlink:href="#path4973"
       x="0"
       y="0"
       width="100%"
       height="100%"
       transform="matrix(0.97830191,-0.20718441,0.20718441,0.97830191,274.85598,158.84302)" />
    <use
       id="use9309"
       xlink:href="#path4973"
       x="0"
       y="0"
       width="100%"
       height="100%"
       transform="matrix(0.98882739,-0.14906508,0.14906508,0.98882739,256.34004,178.72467)" />
    <use
       id="use9311"
       xlink:href="#path4973"
       x="0"
       y="0"
       width="100%"
       height="100%"
       transform="matrix(0.96857217,-0.24873267,0.24873267,0.96857217,289.6579,185.79703)" />
    <use
       id="use9313"
       xlink:href="#path4973"
       x="0"
       y="0"
       width="100%"
       height="100%"
       transform="matrix(0.99841035,-0.0563628,0.0563628,0.99841035,171.96001,90.959209)" />
    <use
       id="use9315"
       xlink:href="#path4973"
       x="0"
       y="0"
       width="100%"
       height="100%"
       transform="matrix(0.98168781,0.19049685,-0.19049685,0.98168781,114.78503,-65.215773)" />
    <use
       id="use9317"
       xlink:href="#path4973"
       x="0"
       y="0"
       width="100%"
       height="100%"
       transform="matrix(0.99546132,-0.09516705,0.09516705,0.99546132,261.28568,126.37316)" />
    <use
       id="use9319"
       xlink:href="#path4973"
       x="0"
       y="0"
       width="100%"
       height="100%"
       transform="matrix(0.99471984,0.10262767,-0.10262767,0.99471984,192.77096,50.72125)" />
    <use
       id="use9321"
       xlink:href="#path4973"
       x="0"
       y="0"
       width="100%"
       height="100%"
       transform="matrix(0.93318934,0.3593851,-0.3593851,0.93318934,146.39229,-158.82888)" />
    <use
       id="use9323"
       xlink:href="#path4973"
       x="0"
       y="0"
       width="100%"
       height="100%"
       transform="matrix(0.94093927,0.33857539,-0.33857539,0.94093927,19.197657,-36.537663)" />
    <use
       id="use9325"
       xlink:href="#path4973"
       x="0"
       y="0"
       width="100%"
       height="100%"
       transform="matrix(0.93212687,0.36213189,-0.36213189,0.93212687,166.83776,-187.89835)" />
    <use
       id="use9327"
       xlink:href="#path4973"
       x="0"
       y="0"
       width="100%"
       height="100%"
       transform="matrix(0.97536601,0.22059273,-0.22059273,0.97536601,145.24041,-49.301313)" />
    <use
       id="use9329"
       xlink:href="#path4973"
       x="0"
       y="0"
       width="100%"
       height="100%"
       transform="matrix(0.97824393,-0.20745798,0.20745798,0.97824393,401.45445,133.80851)" />
    <use
       id="use9331"
       xlink:href="#path4973"
       x="0"
       y="0"
       width="100%"
       height="100%"
       transform="matrix(0.95762312,-0.28802425,0.28802425,0.95762312,431.67689,164.53759)" />
    <use
       id="use9333"
       xlink:href="#path4973"
       x="0"
       y="0"
       width="100%"
       height="100%"
       transform="matrix(0.98888188,0.14870315,-0.14870315,0.98888188,-75.204308,34.789483)" />
    <use
       id="use9335"
       xlink:href="#path4973"
       x="0"
       y="0"
       width="100%"
       height="100%"
       transform="matrix(0.97470937,0.22347628,-0.22347628,0.97470937,-89.696045,-62.984961)" />
    <use
       id="use9337"
       xlink:href="#path4973"
       x="0"
       y="0"
       width="100%"
       height="100%"
       transform="matrix(0.99465165,0.10328647,-0.10328647,0.99465165,-33.820726,8.5762335)" />
    <use
       id="use9339"
       xlink:href="#path4973"
       x="0"
       y="0"
       width="100%"
       height="100%"
       transform="matrix(0.98029015,-0.19756323,0.19756323,0.98029015,124.13661,110.00353)" />
    <use
       id="use9341"
       xlink:href="#path4973"
       x="0"
       y="0"
       width="100%"
       height="100%"
       transform="matrix(0.96458387,-0.26377635,0.26377635,0.96458387,173.24899,159.38547)" />
    <use
       id="use9343"
       xlink:href="#path4973"
       x="0"
       y="0"
       width="100%"
       height="100%"
       transform="matrix(0.99843181,0.05598141,-0.05598141,0.99843181,25.552455,60.792893)" />
    <use
       id="use9345"
       xlink:href="#path4973"
       x="0"
       y="0"
       width="100%"
       height="100%"
       transform="matrix(0.94642838,-0.32291381,0.32291381,0.94642838,251.54701,191.48962)" />
    <use
       id="use9347"
       xlink:href="#path4973"
       x="0"
       y="0"
       width="100%"
       height="100%"
       transform="matrix(0.98092438,-0.19438973,0.19438973,0.98092438,127.71395,147.26849)" />
    <use
       id="use9349"
       xlink:href="#path4973"
       x="0"
       y="0"
       width="100%"
       height="100%"
       transform="matrix(0.96610223,-0.2581598,0.2581598,0.96610223,227.87041,151.43724)" />
    <use
       id="use9351"
       xlink:href="#path4973"
       x="0"
       y="0"
       width="100%"
       height="100%"
       transform="matrix(0.99230668,0.12380407,-0.12380407,0.99230668,56.001203,72.995693)" />
    <use
       id="use9353"
       xlink:href="#path4973"
       x="0"
       y="0"
       width="100%"
       height="100%"
       transform="matrix(0.94261025,-0.33389507,0.33389507,0.94261025,301.4894,224.93469)" />
    <use
       id="use9355"
       xlink:href="#path4973"
       x="0"
       y="0"
       width="100%"
       height="100%"
       transform="matrix(0.99917301,-0.04066062,0.04066062,0.99917301,148.26679,121.2936)" />
    <use
       id="use9357"
       xlink:href="#path4973"
       x="0"
       y="0"
       width="100%"
       height="100%"
       transform="matrix(0.94471676,-0.32788756,0.32788756,0.94471676,339.84446,209.57349)" />
    <use
       id="use9359"
       xlink:href="#path4973"
       x="0"
       y="0"
       width="100%"
       height="100%"
       transform="matrix(0.9555433,-0.29485082,0.29485082,0.9555433,242.05978,590.45935)"
       style="fill:#6732b7;fill-opacity:1" />
    <use
       id="use9361"
       xlink:href="#path4973"
       x="0"
       y="0"
       width="100%"
       height="100%"
       transform="matrix(0.98968401,0.14326747,-0.14326747,0.98968401,38.466719,386.80329)"
       style="fill:#6732b7;fill-opacity:1" />
    <use
       id="use9363"
       xlink:href="#path4973"
       x="0"
       y="0"
       width="100%"
       height="100%"
       transform="matrix(0.99200056,-0.1262335,0.1262335,0.99200056,174.94088,517.2888)"
       style="fill:#6732b7;fill-opacity:1" />
    <use
       id="use9365"
       xlink:href="#path4973"
       x="0"
       y="0"
       width="100%"
       height="100%"
       transform="matrix(0.93339696,0.35884553,-0.35884553,0.93339696,-91.708963,314.46306)"
       style="fill:#6732b7;fill-opacity:1" />
    <use
       id="use9367"
       xlink:href="#path4973"
       x="0"
       y="0"
       width="100%"
       height="100%"
       transform="matrix(0.99986904,0.01618354,-0.01618354,0.99986904,127.52468,442.40105)"
       style="fill:#6732b7;fill-opacity:1" />
    <use
       id="use9369"
       xlink:href="#path4973"
       x="0"
       y="0"
       width="100%"
       height="100%"
       transform="matrix(0.9983818,0.0568664,-0.0568664,0.9983818,122.68461,438.36689)"
       style="fill:#6732b7;fill-opacity:1" />
    <use
       id="use9371"
       xlink:href="#path4973"
       x="0"
       y="0"
       width="100%"
       height="100%"
       transform="matrix(0.98164348,0.19072515,-0.19072515,0.98164348,47.662757,414.7084)"
       style="fill:#6732b7;fill-opacity:1" />
    <use
       id="use9373"
       xlink:href="#path4973"
       x="0"
       y="0"
       width="100%"
       height="100%"
       transform="matrix(0.98379959,-0.17927174,0.17927174,0.98379959,239.01534,566.68645)"
       style="fill:#6732b7;fill-opacity:1" />
    <use
       id="use9375"
       xlink:href="#path4973"
       x="0"
       y="0"
       width="100%"
       height="100%"
       transform="matrix(0.98955685,-0.1441431,0.1441431,0.98955685,244.63894,507.92374)"
       style="fill:#6732b7;fill-opacity:1" />
    <use
       id="use9377"
       xlink:href="#path4973"
       x="0"
       y="0"
       width="100%"
       height="100%"
       transform="matrix(0.99131037,0.13154374,-0.13154374,0.99131037,77.238932,424.38648)"
       style="fill:#6732b7;fill-opacity:1" />
    <use
       id="use9379"
       xlink:href="#path4973"
       x="0"
       y="0"
       width="100%"
       height="100%"
       transform="matrix(0.98795177,0.15476206,-0.15476206,0.98795177,105.17463,415.56746)"
       style="fill:#6732b7;fill-opacity:1" />
    <use
       id="use9381"
       xlink:href="#use9233"
       x="0"
       y="0"
       width="100%"
       height="100%"
       transform="matrix(0.99989257,0.01465786,-0.01465786,0.99989257,-88.156795,140.8503)" />
    <use
       id="use9383"
       xlink:href="#use9233"
       x="0"
       y="0"
       width="100%"
       height="100%"
       transform="matrix(0.98443733,-0.17573598,0.17573598,0.98443733,1.7828556,248.89861)" />
    <use
       id="use9385"
       xlink:href="#use9233"
       x="0"
       y="0"
       width="100%"
       height="100%"
       transform="matrix(0.98900527,0.14788026,-0.14788026,0.98900527,-34.184199,123.65543)" />
    <use
       id="use9387"
       xlink:href="#use9233"
       x="0"
       y="0"
       width="100%"
       height="100%"
       transform="matrix(0.99999761,-0.00218834,0.00218834,0.99999761,-18.66872,195.86268)" />
    <use
       id="use9389"
       xlink:href="#use9233"
       x="0"
       y="0"
       width="100%"
       height="100%"
       transform="matrix(0.94641756,-0.3229455,0.3229455,0.94641756,78.384793,311.03986)" />
    <use
       id="use9391"
       xlink:href="#use9233"
       x="0"
       y="0"
       width="100%"
       height="100%"
       transform="matrix(0.94370613,-0.33078505,0.33078505,0.94370613,110.16734,344.31779)" />
    <use
       id="use9393"
       xlink:href="#use9233"
       x="0"
       y="0"
       width="100%"
       height="100%"
       transform="matrix(0.95007898,-0.3120095,0.3120095,0.95007898,113.21829,299.46193)" />
    <use
       id="use9395"
       xlink:href="#use9233"
       x="0"
       y="0"
       width="100%"
       height="100%"
       transform="matrix(0.96171173,-0.27406305,0.27406305,0.96171173,108.60614,269.8682)" />
    <use
       id="use9397"
       xlink:href="#use9233"
       x="0"
       y="0"
       width="100%"
       height="100%"
       transform="matrix(0.96049341,-0.27830272,0.27830272,0.96049341,109.26593,286.29049)" />
    <use
       id="use9399"
       xlink:href="#use9233"
       x="0"
       y="0"
       width="100%"
       height="100%"
       transform="matrix(0.9999872,0.005059,-0.005059,0.9999872,44.105484,139.67125)" />
    <use
       id="use9401"
       xlink:href="#use9233"
       x="0"
       y="0"
       width="100%"
       height="100%"
       transform="matrix(0.94746857,-0.31984889,0.31984889,0.94746857,135.83437,277.58487)" />
    <use
       id="use9403"
       xlink:href="#use9233"
       x="0"
       y="0"
       width="100%"
       height="100%"
       transform="matrix(0.96356955,0.26745787,-0.26745787,0.96356955,47.149973,33.274112)" />
    <use
       id="use9405"
       xlink:href="#use9233"
       x="0"
       y="0"
       width="100%"
       height="100%"
       transform="matrix(0.99924648,-0.0388134,0.0388134,0.99924648,123.65984,166.31554)" />
    <use
       id="use9407"
       xlink:href="#use9233"
       x="0"
       y="0"
       width="100%"
       height="100%"
       transform="matrix(0.9781722,0.20779592,-0.20779592,0.9781722,68.477772,70.883623)" />
    <use
       id="use9409"
       xlink:href="#use9233"
       x="0"
       y="0"
       width="100%"
       height="100%"
       transform="matrix(0.9344954,-0.35597521,0.35597521,0.9344954,54.470628,340.3848)" />
    <use
       id="use9411"
       xlink:href="#use9233"
       x="0"
       y="0"
       width="100%"
       height="100%"
       transform="matrix(0.99271131,-0.12051665,0.12051665,0.99271131,195.87421,221.86744)" />
    <use
       id="use9413"
       xlink:href="#use9233"
       x="0"
       y="0"
       width="100%"
       height="100%"
       transform="matrix(0.98472503,0.17411669,-0.17411669,0.98472503,153.80077,76.86392)" />
    <use
       id="use9415"
       xlink:href="#use9233"
       x="0"
       y="0"
       width="100%"
       height="100%"
       transform="matrix(0.98117943,0.19309824,-0.19309824,0.98117943,133.39715,68.218675)" />
    <use
       id="use9417"
       xlink:href="#use9233"
       x="0"
       y="0"
       width="100%"
       height="100%"
       transform="matrix(0.97420656,-0.22565809,0.22565809,0.97420656,-9.0282897,276.81525)" />
    <use
       id="use9419"
       xlink:href="#use9233"
       x="0"
       y="0"
       width="100%"
       height="100%"
       transform="matrix(0.9995971,0.02838368,-0.02838368,0.9995971,1.125271,193.58992)" />
    <ellipse
       style="opacity:1;fill:#fafeff;fill-opacity:0.45508979;fill-rule:nonzero;stroke:none;stroke-width:0.00009032;stroke-linejoin:round;stroke-miterlimit:4;stroke-dasharray:none;stroke-opacity:1"
       id="path9421"
       cx="747.85718"
       cy="-688.35211"
       rx="25"
       ry="7.8571429"
       inkscape:transform-center-x="232.85714"
       inkscape:transform-center-y="35.714286" />
    <ellipse
       inkscape:transform-center-y="16.233775"
       inkscape:transform-center-x="172.97957"
       ry="3.5714285"
       rx="18.571428"
       cy="-705.49493"
       cx="668.57147"
       id="ellipse9423"
       style="opacity:1;fill:#fafeff;fill-opacity:0.45508979;fill-rule:nonzero;stroke:none;stroke-width:0.00009032;stroke-linejoin:round;stroke-miterlimit:4;stroke-dasharray:none;stroke-opacity:1" />
    <ellipse
       style="opacity:1;fill:#fafeff;fill-opacity:0.45508979;fill-rule:nonzero;stroke:none;stroke-width:0.00009032;stroke-linejoin:round;stroke-miterlimit:4;stroke-dasharray:none;stroke-opacity:1"
       id="ellipse9425"
       cx="805.71436"
       cy="-654.06635"
       rx="18.571428"
       ry="3.5714285"
       inkscape:transform-center-x="172.97957"
       inkscape:transform-center-y="16.233775" />
  </g>
</svg>
